<svg width="62" height="86" viewBox="0 0 62 86" fill="none" xmlns="http://www.w3.org/2000/svg">
<rect x="0.944336" y="14.968" width="14.0942" height="18.3837" rx="2" transform="rotate(-30 0.944336 14.968)" fill="#5E77F8"/>
<path fill-rule="evenodd" clip-rule="evenodd" d="M11.9594 8.67054L7.71387 11.1217L11.8302 18.2514L11.9293 15.2184C11.9535 14.4778 12.7467 14.0198 13.4002 14.3692L16.0751 15.7991L11.9594 8.67054Z" fill="#001894"/>
<path fill-rule="evenodd" clip-rule="evenodd" d="M38.2119 15.2609C36.5715 16.2495 34.9596 16.7273 34.2032 16.5322C32.3059 16.0433 32.1316 9.10302 33.5996 6.36691C35.0673 3.63083 42.6138 2.43828 42.994 7.85934C43.126 9.74081 42.3362 11.4199 41.1689 12.79L43.2618 22.5451H37.1822L38.2119 15.2609Z" fill="#CBAA8E"/>
<path fill-rule="evenodd" clip-rule="evenodd" d="M45.6439 6.05477C45.8403 5.86018 45.9474 5.58244 46.0399 5.31869C46.1361 5.04473 46.2296 4.76793 46.2937 4.48278C46.4211 3.91302 46.4224 3.2578 46.0161 2.81536C45.6901 2.46059 45.2009 2.30146 44.7495 2.26688C44.4488 2.2438 44.1398 2.28593 43.8515 2.38072C43.5655 2.47473 43.319 2.6621 43.0416 2.77842C43.031 2.16441 42.9259 1.52196 42.6143 0.997697C42.3146 0.493272 41.8369 0.210192 41.2925 0.135313C40.7339 0.0584568 40.1822 0.189167 39.6822 0.459606C39.557 0.527343 39.4329 0.598296 39.3141 0.678596C39.2148 0.745852 39.1115 0.826837 38.9949 0.854195C38.8647 0.884719 38.8004 0.809637 38.716 0.714771C38.6167 0.603565 38.5053 0.505608 38.3872 0.418772C37.8649 0.0348984 37.1797 -0.122941 36.5745 0.107144C36.2959 0.213182 36.0246 0.393212 35.8356 0.641334C35.6669 0.862478 35.5466 1.21329 35.314 1.36738C35.2152 1.43279 35.1456 1.34613 35.0556 1.28209C34.9206 1.18586 34.7917 1.07967 34.6552 0.986045C34.4631 0.854524 34.2552 0.756137 34.0328 0.704638C33.7067 0.629251 33.2566 0.646933 33.1634 1.07372C33.1284 1.23402 33.1553 1.40548 33.1664 1.567C33.1819 1.7888 33.1981 2.0105 33.2173 2.23197C33.232 2.40012 33.2505 2.56252 33.2822 2.72766C33.2992 2.81566 33.3521 2.97976 33.3144 3.06791C33.2672 3.17808 33.0496 3.11543 32.9564 3.11928C32.7728 3.12686 32.5884 3.15908 32.4184 3.23758C32.2869 3.29843 32.1484 3.3879 32.0929 3.53877C32.0587 3.63146 32.0678 3.72668 32.0838 3.82203C32.1033 3.93645 32.081 3.99717 32.0665 4.11263C31.8198 3.99114 30.9649 3.72121 30.8575 4.16337C30.8215 4.3106 30.9031 4.47695 30.9654 4.60113C31.0745 4.8189 31.2177 5.01796 31.3638 5.20779C31.6691 5.6038 32.0333 5.94537 32.4252 6.23749C31.966 6.44163 31.8461 7.04379 32.2436 7.40256C32.4191 7.56096 32.6552 7.59622 32.8766 7.58609C32.9577 7.58236 33.0745 7.55123 33.1383 7.56534C33.1728 7.57291 33.2095 7.60202 33.2569 7.60526C33.5694 7.62667 33.9223 7.55138 34.2278 7.48202C34.7719 7.35846 35.2874 7.10058 35.7082 6.70782C35.8161 6.60707 35.9053 6.54907 36.0507 6.55056C36.1778 6.55185 36.303 6.58676 36.4301 6.58998C36.7665 6.59856 37.07 6.43403 37.3826 6.3245C37.4018 6.74673 37.5222 7.21176 37.6947 7.59163C37.8355 7.90139 38.1296 7.9464 38.4187 7.97358C39.343 8.06054 40.2704 7.9635 41.196 7.96477C40.3 8.16727 39.3744 8.25071 38.4865 8.489C38.0853 8.59666 38.3918 8.86715 38.5633 9.05468C38.8457 9.36344 39.056 9.74602 39.2016 10.1491C39.6399 9.57785 40.4145 9.20147 41.1007 9.37694C41.8589 9.57081 42.3929 10.5962 41.9081 11.3333C41.6264 11.7613 41.1182 11.9265 40.6952 12.1103C41.025 12.4534 41.1051 12.9601 41.3037 13.3868C41.4014 13.5973 41.539 13.8353 41.7581 13.9086C41.8392 13.9358 41.9342 13.9381 41.998 14.0042C42.0773 14.086 42.096 14.1774 42.1973 14.2477C42.6009 14.5283 43.2314 14.5067 43.5891 14.1405C43.9125 13.8093 43.8284 13.2853 43.5582 12.9496C43.9883 12.7703 44.7718 12.5397 44.6008 11.8697C45.5327 11.8078 47.7953 10.2964 46.5447 9.19197C47.2312 8.80402 47.8617 7.85592 47.4209 7.02015C47.0813 6.37658 46.2917 6.08889 45.6439 6.05477Z" fill="#191847"/>
<path fill-rule="evenodd" clip-rule="evenodd" d="M54.2491 54.2095H34.6795L32.1152 85.6205H61.2464L54.2491 54.2095Z" fill="#C5CFD6"/>
<path fill-rule="evenodd" clip-rule="evenodd" d="M54.2501 54.2095H48.2313L44.6289 85.6205H61.2474L54.2501 54.2095Z" fill="black" fill-opacity="0.1"/>
<path fill-rule="evenodd" clip-rule="evenodd" d="M23.9293 60.4326C26.1283 65.0963 29.5645 76.418 29.5645 76.418L26.6473 77.7509C26.6473 77.7509 19.2452 65.8497 14.7214 57.7142C14.9322 59.5457 15.1468 61.6077 15.3458 63.7753C15.8171 68.91 15.346 80.0036 15.0925 83.2081C14.9331 85.2222 12.1965 84.8002 11.9411 83.203C11.8978 82.9325 11.7215 81.9826 11.4583 80.5655C10.1682 73.6166 6.79162 55.4298 6.78565 50.9766C6.78324 49.1849 10.2839 47.5751 12.3704 48.828C13.8036 47.2987 16.5161 46.4174 18.0744 48.9435C19.0651 50.5495 21.4189 55.1086 23.9293 60.4326Z" fill="#CBAA8E"/>
<path fill-rule="evenodd" clip-rule="evenodd" d="M29.3562 72.2264L19.3435 48.5065C16.9446 44.648 10.2193 49.2918 11.0373 51.5298C12.8945 56.6105 22.3394 73.0595 22.8929 74.5733L29.3562 72.2264Z" fill="#344054"/>
<path fill-rule="evenodd" clip-rule="evenodd" d="M29.1628 75.0281C29.3384 74.789 29.6781 74.7322 29.9051 74.9232C30.3192 75.2715 30.9148 75.808 31.1298 76.1804C31.4723 76.7737 31.9318 78.0263 31.9318 78.0263C31.2436 78.4238 19.5587 85.17 19.5587 85.17C19.5587 85.17 18.1558 83.8541 19.1214 83.1271C20.0873 82.3998 20.7153 81.9005 20.7153 81.9005L24.9862 76.0165C25.07 75.901 25.2327 75.8775 25.3456 75.9646L26.233 76.6478C26.233 76.6478 27.4542 76.5414 28.0556 76.1941C28.4219 75.9826 28.869 75.4291 29.1628 75.0281Z" fill="#93370D"/>
<path fill-rule="evenodd" clip-rule="evenodd" d="M15.0313 81.6392C15.3028 81.5199 15.6254 81.6408 15.7265 81.9197C15.911 82.4281 16.1585 83.1908 16.1585 83.6207C16.1585 84.3059 15.9302 85.6203 15.9302 85.6203C15.1353 85.6203 1.64273 85.6203 1.64273 85.6203C1.64273 85.6203 1.08582 83.7792 2.28572 83.6323C3.4856 83.4857 4.27926 83.3674 4.27926 83.3674L10.9199 80.4069C11.0503 80.3486 11.2029 80.4096 11.2572 80.5416L11.6841 81.5772C11.6841 81.5772 12.7949 82.0955 13.4894 82.0955C13.9121 82.0955 14.5763 81.8394 15.0313 81.6392Z" fill="#93370D"/>
<path fill-rule="evenodd" clip-rule="evenodd" d="M6.0835 52.7992C6.0835 59.529 9.27952 75.2269 9.28154 76.7088L16.1579 76.7141C16.1579 76.7141 14.6482 55.7035 15.0872 55.477C15.5263 55.2508 33.0854 57.2302 38.3518 57.2302C45.9457 57.2302 49.0873 52.4413 49.3422 43.5702H34.2988C31.2357 43.898 15.259 47.1204 9.32549 48.2281C6.78528 48.7026 6.0835 50.9454 6.0835 52.7992Z" fill="#667085"/>
<path fill-rule="evenodd" clip-rule="evenodd" d="M23.1636 22.9733L31.9561 27.7888L28.7092 31.2739L22.3203 25.4241C18.9548 24.4967 17.4156 23.8181 17.7031 23.3885C17.9453 23.0265 18.3362 23.0389 18.6959 23.0506C18.9763 23.0597 19.238 23.068 19.3963 22.8983C19.7575 22.5105 19.0683 21.1545 18.359 19.8958C17.6499 18.6373 18.4081 18.7467 18.8418 18.9279C20.2609 19.8884 21.7015 21.2368 23.1636 22.9733ZM14.3233 29.7302L18.1855 31.852L17.9656 35.7277C17.9656 35.7277 15.4641 33.9223 13.3121 33.3222C10.5682 32.5572 9.458 31.9731 8.11713 30.2645C7.39972 29.3503 6.79082 27.5127 7.47371 26.9144C7.73564 26.6846 8.71166 27.227 9.70752 27.7805C10.4665 28.2022 11.237 28.6303 11.7117 28.7281C12.3507 28.8596 12.2759 28.0312 12.2161 27.3693C12.1732 26.8946 12.138 26.5053 12.3799 26.6177C13.5104 26.6372 14.3233 29.7302 14.3233 29.7302Z" fill="#CBAA8E"/>
<path fill-rule="evenodd" clip-rule="evenodd" d="M36.2386 26.7159C33.1588 26.6835 29.0521 26.033 24.6702 23.2516L22.9492 27.0893C25.9718 30.0888 30.2219 32.5536 33.938 32.4492C36.8666 32.3669 38.3632 28.8245 36.2386 26.7159Z" fill="#001894"/>
<path fill-rule="evenodd" clip-rule="evenodd" d="M44.5435 53.0086C47.4713 52.6269 50.1615 52.276 51.7556 52.5899C53.5445 46.7806 52.0591 43.123 50.6879 39.7466C49.8616 37.7114 49.0765 35.7786 49.075 33.5383C49.0699 27.0142 43.8317 16.9723 43.0608 16.9723H42.8397H36.7315H36.0321C35.718 21.0094 34.3767 25.3806 33.027 29.7799C32.7119 30.8071 32.396 31.836 32.0928 32.8625C26.9847 34.0221 15.6424 29.9858 15.6424 29.9858C15.6424 29.9858 12.779 35.9098 12.995 38.4324C19.597 41.881 25.2556 43.4186 29.9173 43.5202C29.7691 46.2861 30.1058 48.9183 31.2368 51.3233C32.7524 54.5457 39.0638 53.7229 44.5435 53.0086Z" fill="#274AFB"/>
</svg>
