<svg width="52" height="54" viewBox="0 0 52 54" fill="none" xmlns="http://www.w3.org/2000/svg">
<g filter="url(#filter0_d_12859_63326)">
<rect x="2" width="48" height="48" rx="24" fill="#E4E8FC"/>
</g>
<rect x="16.3281" y="14.2461" width="15.1484" height="17.3125" fill="#E4E8FC"/>
<path d="M14.9756 29.3495V15.9593C14.9756 15.1701 15.2891 14.4133 15.8471 13.8553C16.4051 13.2972 17.162 12.9837 17.9512 12.9837H31.8372C32.1003 12.9837 32.3526 13.0882 32.5386 13.2742C32.7246 13.4603 32.8291 13.7125 32.8291 13.9756V31.8291C32.8291 32.0922 32.7246 32.3444 32.5386 32.5305C32.3526 32.7165 32.1003 32.821 31.8372 32.821H18.4471C17.5264 32.821 16.6434 32.4552 15.9924 31.8042C15.3413 31.1532 14.9756 30.2702 14.9756 29.3495ZM30.8454 30.8372V27.8617H18.4471C18.0525 27.8617 17.6741 28.0184 17.3951 28.2974C17.1161 28.5764 16.9593 28.9549 16.9593 29.3495C16.9593 29.744 17.1161 30.1225 17.3951 30.4015C17.6741 30.6805 18.0525 30.8372 18.4471 30.8372H30.8454ZM21.9186 14.9675H17.9512C17.6881 14.9675 17.4358 15.072 17.2498 15.258C17.0638 15.444 16.9593 15.6963 16.9593 15.9593V26.2122C17.4242 25.9914 17.9325 25.8772 18.4471 25.8779H30.8454V14.9675H28.8616V22.9024L25.3901 20.9186L21.9186 22.9024V14.9675Z" fill="#001894"/>
<path d="M35.8638 36.0595L36.1455 36.6822C36.1168 36.6989 36.0742 36.7255 36.0216 36.7583C35.8397 36.8717 35.5379 37.0598 35.2768 37.175L35.2759 37.1754C34.4633 37.5331 33.6135 37.585 32.7878 37.3967L32.7877 37.3967C30.9358 36.9741 29.0827 36.5506 27.2304 36.1224L35.8638 36.0595ZM35.8638 36.0595C35.8736 36.0513 35.8833 36.0432 35.893 36.0349M35.8638 36.0595L35.893 36.0349M35.893 36.0349L36.3682 36.5101L39.4942 33.3841L39.6503 33.228L39.7109 33.0802C40.8338 31.4667 40.7008 29.3218 39.2913 27.8841C38.1684 26.7386 37.0298 25.6075 35.8974 24.4824C35.7035 24.2898 35.5098 24.0973 35.3164 23.905C34.5711 23.1639 33.4702 22.9664 32.5292 23.4322L35.893 36.0349ZM31.684 24.1182C31.899 23.8395 32.1796 23.6051 32.5289 23.4323L31.684 24.1182ZM31.684 24.1182C31.3447 24.1229 30.997 24.2008 30.6525 24.3727L30.6519 24.373C30.3053 24.5461 30.0292 24.7798 29.8177 25.0536M31.684 24.1182L29.8177 25.0536M29.8177 25.0536C29.5283 25.0515 29.2276 25.1015 28.926 25.2373C28.7737 25.3058 28.635 25.3903 28.508 25.4864C28.1436 25.1208 27.7765 24.7534 27.4081 24.39L27.4081 24.39C26.2112 23.2092 24.1922 23.4668 23.4645 25.0689L23.4644 25.0692C23.0166 26.0557 23.2801 27.1083 24.0137 27.842L29.8177 25.0536ZM24.5552 24.7101C25.1914 24.18 26.1393 24.1786 26.7774 24.7111L26.7803 24.7135L26.7803 24.7135C26.8412 24.7648 26.8986 24.8193 26.9423 24.8622C26.9423 24.8622 26.9423 24.8622 26.9423 24.8622C26.9627 24.8823 26.9801 24.8998 26.9936 24.9133C26.9986 24.9184 27.003 24.9229 27.0069 24.9267C27.3487 25.2685 27.6905 25.6103 28.0323 25.9521L24.4457 27.3336C24.4456 27.3335 24.4455 27.3334 24.4454 27.3333C24.1017 26.9881 23.8875 26.5176 23.9065 26.0009C23.9152 25.7662 23.9713 25.544 24.0653 25.3419C24.0653 25.3419 24.0653 25.3418 24.0653 25.3418C24.1789 25.0977 24.3477 24.8828 24.5552 24.7101ZM24.5552 24.7101C24.5554 24.7099 24.5556 24.7098 24.5558 24.7097L24.8327 25.0426C24.8325 25.0428 24.8323 25.043 24.8321 25.0432L24.5547 24.7105C24.5549 24.7104 24.555 24.7102 24.5552 24.7101ZM27.5104 31.3388C27.399 31.2273 27.2875 31.1159 27.1761 31.0045C26.122 29.9505 25.0677 28.8964 24.0138 27.8421L27.5104 31.3388ZM27.5104 31.3388C27.4075 31.3638 27.3047 31.3891 27.2023 31.4145L27.2022 31.4145C26.1067 31.6859 25.3429 32.6405 25.3475 33.7748C25.3475 33.775 25.3475 33.7752 25.3475 33.7754L26.0066 33.7725C26.0066 33.7756 26.0067 33.7787 26.0067 33.7818C26.0067 33.7822 26.0067 33.7825 26.0067 33.7828L26.4476 33.7783C26.4533 34.3906 26.8653 34.909 27.4781 35.0507M27.5104 31.3388L27.3785 35.4814L27.4781 35.0507M27.4781 35.0507C27.4858 35.0524 27.4934 35.0542 27.501 35.056M27.4781 35.0507L27.501 35.056M25.7879 25.8967L25.6658 26.0429L25.6653 26.0435L25.5144 26.2244C25.5205 26.2323 25.5272 26.2405 25.5345 26.249C25.5346 26.249 25.5346 26.2491 25.5347 26.2491C25.545 26.2611 25.5566 26.2736 25.5695 26.2865L25.5696 26.2866C25.5825 26.2995 25.5954 26.3124 25.6083 26.3253C25.6655 26.3825 25.7226 26.4397 25.7797 26.4968C25.8395 26.4808 25.9027 26.4508 25.9627 26.401C25.9628 26.4009 25.963 26.4007 25.9631 26.4006C25.9633 26.4004 25.9635 26.4003 25.9637 26.4001C25.9637 26.4001 25.9637 26.4001 25.9637 26.4001C26.0077 26.3631 26.065 26.2886 26.0912 26.1819C26.0345 26.1255 25.9776 26.0692 25.9206 26.013C25.9015 25.994 25.8823 25.9751 25.8631 25.9561L25.7879 25.8967ZM25.7879 25.8967C25.8066 25.908 25.8258 25.9221 25.8453 25.9394C25.8454 25.9395 25.8455 25.9396 25.8455 25.9397C25.8514 25.9449 25.8572 25.9503 25.863 25.9561L25.7879 25.8967ZM27.501 35.056L27.402 35.487C27.4024 35.487 27.4028 35.4871 27.4033 35.4872L27.5018 35.0561C29.3378 35.4806 31.175 35.9004 33.0122 36.3196C33.0122 36.3196 33.0122 36.3197 33.0123 36.3197C33.019 36.3212 33.0257 36.3227 33.0324 36.3243C33.6483 36.4647 34.2549 36.423 34.8328 36.1686C35.0148 36.0883 35.1852 35.9821 35.3556 35.8757L27.501 35.056ZM37.2452 31.5898C36.3572 32.4969 35.4588 33.3947 34.5512 34.2825C34.2174 34.609 33.8667 34.7092 33.4011 34.6037L37.2452 31.5898ZM37.2452 31.5898C37.729 31.0954 37.7179 30.3691 37.269 29.9127L37.2452 31.5898ZM31.6892 32.5836L31.8314 32.5484L31.7279 32.4449C31.7972 32.1435 31.763 31.8695 31.6743 31.6351C31.8911 31.5696 32.091 31.4537 32.2537 31.2972C32.2543 31.2966 32.2549 31.296 32.2555 31.2955L31.4913 30.5042M31.6892 32.5836L31.9145 30.081C31.8586 30.0462 31.8074 30.0092 31.7619 29.9733L31.5439 30.107M31.6892 32.5836C31.4792 33.2206 30.9478 33.4602 30.6078 33.5405L30.6067 33.5407C30.3022 33.6123 29.9979 33.6842 29.6937 33.7564M31.6892 32.5836L29.6937 33.7564M31.4913 30.5042C31.5973 30.4023 31.623 30.2358 31.5439 30.107M31.4913 30.5042C31.3891 30.6029 31.2296 30.6269 31.1058 30.5515C31.061 30.5241 31.0197 30.4898 30.9805 30.4533C30.9804 30.4531 30.9802 30.453 30.9801 30.4529C30.9654 30.4392 30.9509 30.4251 30.9367 30.411C30.9363 30.4106 30.9358 30.4101 30.9353 30.4096C30.9333 30.4076 30.9312 30.4055 30.9291 30.4035L30.7814 30.5513L31.4913 30.5042ZM31.5439 30.107L31.7617 29.9732C31.6726 29.9029 31.6052 29.8367 31.567 29.7987L31.4508 29.9884C31.4853 30.0255 31.5179 30.0647 31.5439 30.107ZM32.8951 29.1004L33.6773 29.8738C33.6766 29.8746 33.6759 29.8753 33.6751 29.876C33.4121 30.1408 33.056 30.2892 32.6902 30.2962L34.089 28.8959C33.7877 28.9002 33.4858 28.8095 33.2305 28.6286M32.8951 29.1004C32.9991 28.9958 33.0207 28.8311 32.9401 28.702C32.9142 28.6605 32.8819 28.6223 32.8479 28.5862C32.8477 28.5861 32.8476 28.5859 32.8475 28.5858C32.8357 28.5733 32.8237 28.5611 32.8116 28.549M32.8951 29.1004C32.7918 29.2049 32.6262 29.2286 32.4971 29.148C32.4544 29.1214 32.4153 29.0882 32.3783 29.0532L32.8951 29.1004ZM32.8116 28.549L32.9641 28.3977C32.9642 28.3978 32.9643 28.3979 32.9644 28.3981C32.9646 28.3982 32.9648 28.3984 32.965 28.3986C32.9948 28.429 33.0649 28.499 33.1523 28.5694C33.1523 28.5694 33.1524 28.5695 33.1524 28.5695C33.1772 28.5895 33.2034 28.6095 33.2305 28.6286M32.8116 28.549C32.8085 28.5459 32.8054 28.5428 32.8023 28.5396C32.802 28.5394 32.8018 28.5391 32.8015 28.5388C32.6698 28.4061 32.5379 28.2736 32.406 28.1411M32.8116 28.549L32.9635 28.3971C32.961 28.3945 32.9588 28.3923 32.9569 28.3904C32.956 28.3894 32.9551 28.3885 32.9543 28.3877C32.9539 28.3873 32.9536 28.3869 32.9532 28.3866C32.9524 28.3857 32.9517 28.385 32.9511 28.3844L33.0091 28.3264L33.0118 28.3237L32.406 28.1411M33.2305 28.6286C33.23 28.6283 33.2295 28.628 33.2291 28.6276L33.3643 28.4372L33.3646 28.4368L33.7295 27.9228C33.7296 27.9229 33.7297 27.923 33.7298 27.9231L33.3676 28.4349L33.3673 28.4353L33.2305 28.6286ZM35.0587 28.4923C35.0587 28.4923 35.0587 28.4923 35.0587 28.4923L34.2911 27.7044L35.0587 28.4923ZM35.0587 28.4923C35.2039 28.3508 35.3114 28.188 35.3824 28.0146L35.0587 28.4923ZM32.406 28.1411C32.4879 28.1119 32.5746 28.0965 32.6625 28.0959C32.7584 28.192 32.8549 28.2884 32.952 28.3853L33.0064 28.3308L33.0091 28.3281L33.1051 28.2318L32.406 28.1411ZM29.6937 33.7564C30.9297 34.0404 32.1651 34.3236 33.4011 34.6037L29.6937 33.7564ZM25.4489 26.0974C25.4432 26.0706 25.442 26.035 25.4677 25.9784C25.4871 25.9359 25.5106 25.9074 25.5364 25.8885C25.5365 25.8884 25.5367 25.8883 25.5368 25.8882C25.5609 25.8708 25.5869 25.8616 25.6132 25.8574C25.6559 25.8504 25.7177 25.8546 25.7865 25.8959L25.6644 26.0412L25.6639 26.0418L25.5125 26.222C25.4681 26.1639 25.4537 26.1203 25.4489 26.0974ZM32.9085 26.7855C32.8177 26.6946 32.7267 26.6038 32.6356 26.5131L32.9085 26.7855ZM31.5575 26.4002C31.5612 26.3953 31.5657 26.39 31.5715 26.3842L31.7264 26.5357L31.7266 26.5358L31.7274 26.5366L31.7274 26.5367L32.0434 26.8455C31.9872 26.9031 31.9165 26.9421 31.841 26.9618C31.7513 26.8723 31.6616 26.7829 31.5717 26.6935C31.5716 26.6935 31.5716 26.6934 31.5715 26.6933C31.571 26.6928 31.5704 26.6923 31.5699 26.6917C31.5699 26.6917 31.5699 26.6917 31.5699 26.6917C31.5407 26.6626 31.5114 26.6336 31.4822 26.6046L31.4988 26.5387C31.5192 26.458 31.5436 26.4184 31.5575 26.4002ZM30.0115 27.2916C30.0136 27.2922 30.0157 27.2928 30.0179 27.2934L29.8499 27.4595L29.8494 27.4599L29.7134 27.5944L29.8476 27.4581L29.848 27.4577L30.0115 27.2916ZM29.8476 27.4581L29.7089 27.5989L29.694 27.6136C29.6646 27.5842 29.6352 27.5548 29.6057 27.5254C29.6553 27.4496 29.6978 27.3914 29.7339 27.3468C29.734 27.3466 29.7341 27.3465 29.7342 27.3464C29.7503 27.3265 29.7651 27.3094 29.7787 27.2945C29.7958 27.276 29.8093 27.263 29.8191 27.2542C29.8509 27.2562 29.9112 27.2643 30.0114 27.2916L29.848 27.4576L29.8476 27.4581ZM29.694 27.6137L29.7062 27.6016L29.6942 27.6138C29.6941 27.6138 29.6941 27.6137 29.694 27.6137ZM29.6943 27.6139L29.7107 27.5971L29.8495 27.46L29.8499 27.4595L30.018 27.2934C30.0435 27.3004 30.0715 27.3087 30.1022 27.3183L30.171 27.34C30.2078 27.41 30.2497 27.4781 30.2965 27.5439C30.281 27.6396 30.237 27.7224 30.1793 27.7815C30.1793 27.7816 30.1792 27.7817 30.1791 27.7817C30.1791 27.7818 30.179 27.7819 30.1789 27.782C30.1789 27.782 30.1789 27.782 30.1788 27.782C30.1787 27.7821 30.1787 27.7822 30.1786 27.7823C30.1288 27.8329 30.0589 27.8748 29.9752 27.8948C29.8816 27.8012 29.7879 27.7075 29.6943 27.6139ZM30.4811 27.7636C30.806 28.0936 31.1359 28.4248 31.463 28.7531C31.6516 28.9424 31.8393 29.1308 32.0245 29.3175L30.4811 27.7636ZM33.591 27.7728C33.5906 27.7723 33.5901 27.7719 33.5897 27.7714C33.5901 27.7719 33.5906 27.7723 33.591 27.7728ZM33.5769 27.7586C33.4802 27.6611 33.3839 27.5642 33.2879 27.4678L33.5769 27.7586ZM30.7813 30.5513C30.6842 30.4541 30.587 30.357 30.4899 30.2599L30.7813 30.5513ZM29.8393 27.2381C29.8393 27.2381 29.8389 27.2383 29.8381 27.2388L29.8393 27.2381ZM29.7981 27.2537C29.793 27.2547 29.7901 27.2548 29.79 27.2546C29.7898 27.2544 29.7923 27.2539 29.7981 27.2537ZM26.4476 33.7777C26.4475 33.7754 26.4475 33.773 26.4475 33.7707L26.4476 33.7777Z" fill="#001894" stroke="#E4E8FC" stroke-width="2.2"/>
<path d="M28.3401 31.2279L27.0809 29.9687C26.8307 29.7185 26.5802 29.4682 26.3295 29.2176C25.7017 28.5904 25.0729 27.962 24.4461 27.3327L28.3401 31.2279ZM28.3401 31.2279L28.3419 31.2223M28.3401 31.2279L28.3419 31.2223M28.3419 31.2223C28.5018 31.3821 28.6617 31.542 28.8216 31.7019M28.3419 31.2223L28.8216 31.7019M28.8216 31.7019C28.3402 31.8166 27.859 31.9321 27.3781 32.0485L27.3774 32.0486C26.5854 32.2408 25.9987 32.9253 26.0071 33.7809C26.0071 33.7812 26.0071 33.7816 26.0071 33.7819L27.107 33.7706C27.1099 34.0825 27.3217 34.3386 27.6487 34.414C27.9713 34.4881 28.2939 34.5623 28.6165 34.6365C30.13 34.9846 31.6437 35.3328 33.1583 35.6756C33.9848 35.8631 34.7172 35.6581 35.3206 35.0681C36.2338 34.1748 37.138 33.2712 38.0316 32.3583C38.9217 31.4489 38.9357 30.0372 38.0535 29.1403M28.8216 31.7019L32.343 24.3647C32.9943 23.7056 34.0493 23.6683 34.7461 24.2773L34.7521 24.2825L34.752 24.2825L34.7547 24.2849C34.7688 24.2974 34.8066 24.3308 34.8456 24.3698C35.2269 24.7511 35.61 25.1329 35.9939 25.5156C36.9426 26.4612 37.896 27.4114 38.8377 28.3689C38.8377 28.369 38.8377 28.369 38.8378 28.369L38.0535 29.1403M38.0535 29.1403C37.1159 28.1869 36.1686 27.2428 35.2214 26.2987C34.8366 25.9152 34.4519 25.5317 34.0677 25.1476C34.0531 25.133 34.0377 25.1193 34.0222 25.1055L38.0535 29.1403ZM33.7293 27.6057C33.5972 27.4739 33.4653 27.3419 33.3335 27.2098C33.3712 27.1047 33.4332 27.0046 33.5218 26.9176L33.7293 27.6057ZM33.7293 27.6057C33.7335 27.6099 33.7377 27.6141 33.7419 27.6183C33.7421 27.6185 33.7422 27.6187 33.7424 27.6189C33.7433 27.6197 33.7442 27.6206 33.745 27.6215C33.7559 27.6324 33.7668 27.6433 33.7778 27.654C33.8058 27.6813 33.8347 27.7075 33.8662 27.7298C34.0032 27.827 34.1781 27.8145 34.2915 27.7035L33.7293 27.6057ZM32.0273 24.8016C31.4744 24.7051 30.889 24.8787 30.4706 25.3068L30.4704 25.3069C30.3441 25.4362 30.2419 25.5791 30.1635 25.7306C29.6033 25.6348 29.016 25.8243 28.6072 26.242C28.607 26.2422 28.6067 26.2425 28.6065 26.2427L29.3931 27.0117C29.3409 27.065 29.2993 27.1242 29.2685 27.187C29.0039 26.9224 28.7394 26.6579 28.4748 26.3933L32.0273 24.8016ZM32.0273 24.8016C32.1079 24.6436 32.2133 24.4959 32.3429 24.3648L32.0273 24.8016ZM31.2572 26.0757C31.4203 25.9088 31.6471 25.8447 31.859 25.8896L31.2572 26.0757ZM31.2572 26.0757C31.2038 26.1303 31.1618 26.1913 31.1312 26.256L31.2572 26.0757ZM26.7771 24.7096C26.1379 24.1767 25.1911 24.1806 24.5562 24.7086L24.556 24.7088C24.1765 25.0246 23.9258 25.4814 23.9068 26.0003C23.8878 26.5174 24.1024 26.9877 24.446 27.3326L26.7771 24.7096ZM26.7771 24.7096C26.7773 24.7098 26.7775 24.71 26.7777 24.7102L26.0729 25.5547L26.7762 24.7089C26.7765 24.7092 26.7768 24.7094 26.7771 24.7096Z" fill="#E4E8FC" stroke="#E4E8FC" stroke-width="2.2"/>
<path d="M35.6864 36.2323L35.819 36.5256C35.7629 36.5583 35.6987 36.5984 35.6288 36.6419C35.4474 36.7548 35.228 36.8915 35.0154 36.9853L35.015 36.9854C34.341 37.2821 33.6349 37.328 32.9332 37.168L32.9331 37.168C31.0811 36.7453 29.2287 36.322 27.3772 35.894L35.6864 36.2323ZM35.6864 36.2323L35.9096 36.4554L39.0358 33.3292L39.0996 33.2654L39.1339 33.1818C39.1356 33.1777 39.1372 33.1737 39.1386 33.1699L35.6864 36.2323ZM29.3047 31.9814C29.2925 31.9844 29.2803 31.9874 29.2679 31.9904L29.3633 32.3845L29.3737 32.4278L29.3633 32.3845L29.2684 31.9903C29.11 32.0285 28.9509 32.0665 28.7914 32.1045L29.3047 31.9814ZM29.3047 31.9814C29.3816 32.0584 29.4586 32.1353 29.5355 32.2123L29.676 32.3527L29.3047 31.9814ZM27.8585 28.9597L27.8623 28.9558L28.1805 29.274C29.0731 30.1665 29.9655 31.059 30.8586 31.9515L30.8587 31.9516C31.0445 32.1374 31.1832 32.422 31.0788 32.7651L31.0786 32.7656C30.9703 33.1197 30.6845 33.2594 30.459 33.3126L30.4586 33.3127C29.5524 33.5257 28.6474 33.7416 27.7428 33.9607L27.7425 33.9607C27.6076 33.9933 27.5561 34.0807 27.557 34.1717L27.557 34.1721C27.5579 34.2616 27.6103 34.3493 27.7491 34.3811L27.7496 34.3812C28.0106 34.4412 28.2715 34.5012 28.5324 34.5612C30.1077 34.9234 31.6824 35.2854 33.2582 35.6426C33.9369 35.7964 34.5134 35.6344 35.0065 35.1523C35.0066 35.1523 35.0066 35.1522 35.0066 35.1522L35.3212 35.474L27.8585 28.9597ZM27.8585 28.9597C27.7061 28.8074 27.5538 28.6552 27.4015 28.5031C26.7816 27.8838 26.1621 27.2649 25.5443 26.6442L25.5441 26.644C25.4684 26.568 25.4543 26.5022 25.4558 26.4623C25.4572 26.4231 25.475 26.3656 25.5473 26.3055L25.5477 26.3052C25.6097 26.2535 25.7222 26.2533 25.7845 26.3054L26.0729 25.9599M27.8585 28.9597L25.2595 25.9596C25.4882 25.7689 25.8433 25.7683 26.0729 25.9599M26.0729 25.9599C26.122 26.0012 26.1676 26.0469 26.2133 26.0927C26.2187 26.098 26.224 26.1034 26.2294 26.1088C27.796 27.6754 29.3626 29.242 30.9298 30.808M26.0729 25.9599L25.7834 26.3044C25.8166 26.3323 25.848 26.3637 25.8968 26.4126C25.9014 26.4172 25.9062 26.422 25.9112 26.427C27.4778 27.9936 29.0444 29.5602 30.6116 31.1262L30.9298 30.808M30.9298 30.808C30.9841 30.8624 31.0417 30.9164 31.1065 30.9561L30.6117 31.1264M30.9298 30.808L30.6117 31.1264M30.6117 31.1264C30.6686 31.1832 30.7579 31.2703 30.8714 31.3398L30.8726 31.3405M30.6117 31.1264L30.8726 31.3405M33.4463 25.859L33.4459 25.8594C33.3645 25.9418 33.3695 26.0636 33.4384 26.134L33.4384 26.1341C33.6794 26.3809 33.9214 26.624 34.1651 26.8689C34.2875 26.9919 34.4104 27.1154 34.5338 27.24L34.5369 27.2431C34.5745 27.2807 34.6416 27.3476 34.6983 27.4305C34.9096 27.7398 34.8843 28.1601 34.606 28.4312M33.4463 25.859L34.606 28.4312M33.4463 25.859C33.52 25.7842 33.6444 25.7786 33.7256 25.8487C33.7415 25.8628 33.7466 25.8675 33.75 25.8709L33.4463 25.859ZM34.606 28.4312C34.3299 28.7001 33.9125 28.7195 33.6062 28.502M34.606 28.4312L33.6062 28.502M33.6062 28.502C33.527 28.4459 33.459 28.3771 33.4228 28.3405C33.4186 28.3363 33.4149 28.3325 33.4116 28.3292L33.7298 28.011M33.6062 28.502L33.7298 28.011M33.7298 28.011L33.4119 28.3296C33.248 28.166 33.0852 28.0028 32.9227 27.84C32.5725 27.4891 32.2241 27.14 31.8713 26.7935L31.8712 26.7934C31.7847 26.7085 31.6617 26.7112 31.5793 26.7954L33.7298 28.011ZM31.5864 27.0805L31.5864 27.0805C31.9087 27.408 32.2319 27.7324 32.5562 28.0579C32.7475 28.25 32.9393 28.4424 33.1314 28.636C33.1316 28.6362 33.1317 28.6364 33.1319 28.6365L32.8124 28.9535L31.5864 27.0805ZM31.5864 27.0805C31.497 26.9897 31.5027 26.8739 31.5793 26.7955M31.5864 27.0805L31.5793 26.7955M31.8039 31.2332C32.0562 30.9906 32.1223 30.5924 31.9282 30.2763L31.8039 31.2332ZM31.8039 31.2332C31.5651 31.4632 31.1833 31.5296 30.8726 31.3405M31.8039 31.2332L30.8726 31.3405M31.5793 26.7955L31.2575 26.4809L31.5793 26.7955ZM33.2158 29.8214C33.2159 29.8214 33.2159 29.8213 33.2159 29.8213L32.896 29.5049L33.215 29.8222C33.2153 29.8219 33.2156 29.8217 33.2158 29.8214ZM33.2158 29.8214C32.9696 30.0703 32.5731 30.13 32.2595 29.9342M33.2158 29.8214L32.2595 29.9342M32.2595 29.9342L32.4979 29.5525L32.2599 29.9344C32.2598 29.9343 32.2596 29.9342 32.2595 29.9342ZM32.2595 29.9342C32.1511 29.8665 32.0662 29.7823 32.0155 29.7317M32.2595 29.9342L32.0155 29.7317M32.0155 29.7317L32.3337 29.4135L32.0161 29.7322C31.7844 29.5013 31.554 29.2707 31.324 29.0405C30.8809 28.597 30.4394 28.155 29.9929 27.7154L30.3086 27.3948L32.0155 29.7317ZM31.865 25.6303C32.0091 25.6464 32.1541 25.686 32.2999 25.7464C32.3371 25.5922 32.3919 25.4524 32.4654 25.3279C32.3206 25.2684 32.1729 25.2244 32.0234 25.1987C31.9554 25.3327 31.9028 25.4771 31.865 25.6303ZM30.4927 26.4838L30.5681 26.2441C30.4281 26.2 30.2898 26.1641 30.1533 26.1403C30.0863 26.2727 30.0344 26.4143 29.9968 26.563L30.0822 26.5847C30.1912 26.6041 30.3076 26.6339 30.433 26.6734C30.4496 26.6078 30.4695 26.5445 30.4927 26.4838ZM28.8252 27.1284L28.8251 27.1283L28.8249 27.128L28.8246 27.1278L28.8244 27.1276L28.8242 27.1273L28.8239 27.1271L28.8237 27.1269L28.8235 27.1266L28.8232 27.1264L28.823 27.1262L28.8228 27.1259L28.8225 27.1257L28.8223 27.1255L28.8221 27.1252L28.8219 27.125L28.8216 27.1248L28.8214 27.1245L28.8212 27.1243L28.8209 27.1241L28.8207 27.1238L28.8205 27.1236L28.8202 27.1234L28.82 27.1231L28.8198 27.1229L28.8195 27.1227L28.8193 27.1224L28.8191 27.1222L28.8188 27.122L28.8186 27.1218L28.8184 27.1215L28.8181 27.1213L28.8179 27.1211L28.8177 27.1208L28.8174 27.1206L28.8172 27.1204L28.817 27.1201L28.8167 27.1199L28.8165 27.1197L28.8163 27.1194L28.816 27.1192L28.8158 27.119L28.8156 27.1187L28.8153 27.1185L28.8151 27.1183L28.8149 27.118L28.8147 27.1178L28.8144 27.1176L28.8142 27.1173L28.814 27.1171L28.8137 27.1169L28.8135 27.1166L28.8133 27.1164L28.813 27.1162L28.8128 27.116L28.8126 27.1157L28.8123 27.1155L28.8121 27.1153L28.8119 27.115L28.8116 27.1148L28.8114 27.1146L28.8112 27.1143L28.8109 27.1141L28.8107 27.1139L28.8105 27.1136L28.8102 27.1134L28.81 27.1132L28.8098 27.1129L28.8096 27.1127L28.8093 27.1125L28.8091 27.1122L28.8089 27.112L28.8086 27.1118L28.8084 27.1116L28.8082 27.1113L28.8079 27.1111L28.8077 27.1109L28.8075 27.1106L28.8072 27.1104L28.807 27.1102L28.8068 27.1099L28.8066 27.1097L28.8063 27.1095L28.8061 27.1092L28.8059 27.109L28.8056 27.1088L28.8054 27.1086L28.8052 27.1083L28.8049 27.1081L28.8047 27.1079L28.8045 27.1076L28.8042 27.1074L28.804 27.1072L28.8038 27.1069L28.8035 27.1067L28.8033 27.1065L28.8031 27.1062L28.8029 27.106L28.8026 27.1058L28.8024 27.1056L28.8022 27.1053L28.8019 27.1051L28.8017 27.1049L28.8015 27.1046L28.8012 27.1044L28.801 27.1042L28.8008 27.1039L28.8006 27.1037L28.8003 27.1035L28.8001 27.1032L28.7999 27.103L28.7996 27.1028L28.7994 27.1026L28.7992 27.1023L28.7989 27.1021L28.7987 27.1019L28.7985 27.1016L28.7982 27.1014L28.798 27.1012L28.7978 27.1009L28.7976 27.1007L28.7973 27.1005L28.7971 27.1003L28.7969 27.1L28.7966 27.0998L28.7964 27.0996L28.7962 27.0993L28.7959 27.0991L28.7957 27.0989L28.7955 27.0986L28.7953 27.0984L28.795 27.0982L28.7948 27.0979L28.7946 27.0977L28.7943 27.0975L28.7941 27.0973L28.7939 27.097L28.7936 27.0968L28.7934 27.0966L28.7932 27.0963L28.793 27.0961L28.7927 27.0959L28.7925 27.0956L28.7923 27.0954L28.792 27.0952L28.7918 27.095L28.7916 27.0947L28.7913 27.0945L28.7911 27.0943L28.7909 27.094L28.7907 27.0938L28.7904 27.0936L28.7902 27.0933L28.79 27.0931L28.7897 27.0929L28.7895 27.0927L28.7893 27.0924L28.789 27.0922L28.7888 27.092L28.7886 27.0917L28.7884 27.0915L28.7881 27.0913L28.7879 27.0911L28.7877 27.0908L28.7874 27.0906L28.7872 27.0904L28.787 27.0901L28.7867 27.0899L28.7865 27.0897L28.7863 27.0894L28.7861 27.0892L28.7858 27.089L28.7856 27.0888L28.7854 27.0885L28.7851 27.0883L28.7849 27.0881L28.7847 27.0878L28.7845 27.0876L28.7842 27.0874L28.784 27.0871L28.7838 27.0869L28.7835 27.0867L28.7833 27.0865L28.7831 27.0862L28.7828 27.086L28.7826 27.0858L28.7824 27.0855L28.7822 27.0853L28.7819 27.0851L28.7817 27.0849L28.7815 27.0846L28.7812 27.0844L28.781 27.0842L28.7808 27.0839L28.7805 27.0837L28.7803 27.0835L28.7801 27.0832L28.7799 27.083L28.7796 27.0828L28.7794 27.0826L28.7792 27.0823L28.7789 27.0821L28.7787 27.0819L28.7785 27.0816L28.7783 27.0814L28.778 27.0812L28.7778 27.081L28.7776 27.0807L28.7773 27.0805L28.7771 27.0803L28.7769 27.08L28.7766 27.0798L28.7764 27.0796L28.7762 27.0793L28.776 27.0791L28.7757 27.0789L28.7755 27.0787L28.7753 27.0784L28.775 27.0782L28.7748 27.078L28.7746 27.0777L28.7744 27.0775L28.7741 27.0773L28.7739 27.0771L28.7737 27.0768L28.7734 27.0766L28.7732 27.0764L28.773 27.0761L28.7727 27.0759L28.7725 27.0757L28.7723 27.0754L28.7721 27.0752L28.7718 27.075L28.7716 27.0748L28.7714 27.0745L28.7711 27.0743L28.7709 27.0741L28.7707 27.0738L28.7705 27.0736L28.7702 27.0734L28.77 27.0732L28.7698 27.0729L28.7695 27.0727L28.7693 27.0725C28.6811 26.9842 28.5928 26.8958 28.5045 26.8073C28.4138 26.9225 28.3277 27.0486 28.244 27.1834C28.313 27.2525 28.382 27.3216 28.4511 27.3907L28.5714 27.511C28.6581 27.3657 28.7419 27.2385 28.8252 27.1284ZM24.7919 27.4686L24.4737 27.7868L24.7919 27.4686ZM32.8181 24.419L33.0177 24.8223L32.8182 24.419C32.8182 24.419 32.8181 24.419 32.8181 24.419ZM34.859 24.7701L34.5417 25.0892L34.859 24.7702C34.859 24.7702 34.859 24.7701 34.859 24.7701ZM38.8283 28.7436C38.8283 28.7436 38.8283 28.7436 38.8283 28.7436L38.507 29.0586L38.8283 28.7436ZM39.1061 33.2142L39.1075 33.2123L39.1061 33.2142ZM29.7148 27.7318L29.7151 27.7315L31.7256 30.0294C31.7255 30.0292 31.7253 30.0291 31.7252 30.0289C31.4801 29.7824 31.2353 29.5366 30.9906 29.2912C30.563 28.862 30.1362 28.4336 29.7101 28.0028C29.6357 27.9275 29.6312 27.8172 29.7148 27.7318ZM25.9979 34.1774C26.0011 35.0031 26.5596 35.705 27.3772 35.894L25.9979 34.1774Z" fill="#001894" stroke="#001894" stroke-width="0.9"/>
<path d="M28.0557 30.4281L27.5409 29.9134C27.2904 29.6628 27.0396 29.4122 26.7887 29.1615C26.1611 28.5344 25.5331 27.9068 24.9068 27.2781L28.0557 30.4281ZM28.0557 30.4281L28.0576 30.4225M28.0557 30.4281L28.0576 30.4225M28.0576 30.4225C28.1096 30.4745 28.1617 30.5266 28.2137 30.5786C28.8442 31.2093 29.4748 31.8399 30.1057 32.4701C29.2471 32.6726 28.3887 32.8774 27.5313 33.0848L27.5311 33.0849C27.0143 33.2102 26.6521 33.6446 26.6574 34.1794L28.0576 30.4225ZM33.7301 28.0099C33.7343 28.0141 33.7385 28.0183 33.7427 28.0225C33.7821 28.062 33.8219 28.1021 33.8671 28.134C34.004 28.2312 34.179 28.2187 34.2923 28.1077C34.4056 27.9973 34.4217 27.8218 34.327 27.6833L33.7301 28.0099ZM33.7301 28.0099C33.5677 27.8478 33.4056 27.6855 33.2436 27.5231C32.8925 27.1713 32.5415 26.8196 32.1868 26.4713M33.7301 28.0099L32.7948 26.7617C32.6258 26.5887 32.5274 26.376 32.4965 26.1561L32.1868 26.4713M32.1868 26.4713L32.4965 26.1559M32.1868 26.4713L32.4965 26.1559M32.4965 26.1559C32.4959 26.1517 32.4953 26.1474 32.4948 26.1431M32.4965 26.1559L32.5021 26.1502C32.4997 26.1478 32.4972 26.1454 32.4948 26.1431M32.4948 26.1431C32.4529 25.816 32.56 25.4746 32.806 25.2257L30.5998 29.5348C30.1962 29.1297 29.7925 28.7247 29.3904 28.318C29.1377 28.0624 29.1436 27.6711 29.3936 27.4158M32.4948 26.1431C32.0478 25.7116 31.3594 25.7321 30.936 26.1652L30.936 26.1653C30.6878 26.4192 30.5865 26.7562 30.6311 27.0793C30.6289 27.0772 30.6268 27.0751 30.6246 27.0729L30.6246 27.0729C30.1735 26.6289 29.4878 26.676 29.0721 27.1009C29.072 27.101 29.0719 27.1011 29.0718 27.1012L29.3936 27.4158M29.3936 27.4158C29.648 27.1556 30.0481 27.1369 30.3089 27.3936L29.3936 27.4158ZM26.3612 25.613C26.4269 25.6676 26.4874 25.7285 26.53 25.7715C26.5364 25.7779 26.5424 25.7839 26.5479 25.7895C27.2857 26.5273 28.0236 27.2651 28.7614 28.0029L26.3615 25.6133C26.3614 25.6132 26.3613 25.6131 26.3612 25.613ZM26.3612 25.613C25.9641 25.2818 25.3671 25.2839 24.9721 25.6125L24.972 25.6125M26.3612 25.613L24.972 25.6125M24.972 25.6125C24.7212 25.8212 24.5682 26.1105 24.5566 26.4282M24.972 25.6125L24.5566 26.4282M24.5566 26.4282C24.5449 26.7451 24.6754 27.0458 24.9068 27.2781L24.5566 26.4282ZM32.9586 26.6018C32.8069 26.4508 32.6548 26.3001 32.5022 26.1503L32.9586 26.6018ZM31.1798 30.5839C31.1799 30.5838 31.18 30.5837 31.1801 30.5836C31.1801 30.5836 31.1801 30.5836 31.1801 30.5836L31.1798 30.5839ZM34.3191 25.1707C33.8807 24.7875 33.2156 24.8112 32.806 25.2256L33.1591 36.0803L33.0595 36.5192C33.0596 36.5192 33.0597 36.5192 33.0598 36.5192C34.0339 36.7401 34.9226 36.4922 35.6361 35.7946L35.6362 35.7945C36.5517 34.8989 37.4582 33.9929 38.3543 33.0776L38.3543 33.0776C39.4107 31.9983 39.4349 30.3062 38.3754 29.2291C37.4361 28.2739 36.4863 27.3272 35.5384 26.3825C35.1539 25.9993 34.7698 25.6164 34.3868 25.2334C34.3624 25.209 34.3381 25.1875 34.3238 25.1749L34.3216 25.1729L34.3191 25.1707Z" fill="#E4E8FC" stroke="#001894" stroke-width="0.9"/>
<defs>
<filter id="filter0_d_12859_63326" x="0" y="0" width="52" height="54" filterUnits="userSpaceOnUse" color-interpolation-filters="sRGB">
<feFlood flood-opacity="0" result="BackgroundImageFix"/>
<feColorMatrix in="SourceAlpha" type="matrix" values="0 0 0 0 0 0 0 0 0 0 0 0 0 0 0 0 0 0 127 0" result="hardAlpha"/>
<feOffset dy="4"/>
<feGaussianBlur stdDeviation="1"/>
<feComposite in2="hardAlpha" operator="out"/>
<feColorMatrix type="matrix" values="0 0 0 0 0 0 0 0 0 0 0 0 0 0 0 0 0 0 0.04 0"/>
<feBlend mode="normal" in2="BackgroundImageFix" result="effect1_dropShadow_12859_63326"/>
<feBlend mode="normal" in="SourceGraphic" in2="effect1_dropShadow_12859_63326" result="shape"/>
</filter>
</defs>
</svg>
