<svg width="164" height="108" viewBox="0 0 164 108" fill="none" xmlns="http://www.w3.org/2000/svg">
<rect width="164" height="108" rx="12" fill="#CDD3F2"/>
<path fill-rule="evenodd" clip-rule="evenodd" d="M164 12.1123V12C164 10.9759 163.872 9.9818 163.63 9.03283C163.183 9.23168 162.72 9.39379 162.248 9.51781C162.154 10.45 162.89 11.4351 164 12.1123ZM163.589 20.5523C163.722 20.4627 163.86 20.371 164 20.2771V24.7784C161.868 24.1551 160.189 23.2379 160.451 22.7834C160.577 22.5661 161.783 21.7595 163.588 20.5524L163.589 20.5523ZM164 51.5896V96C164 102.627 158.627 108 152 108H12C5.37258 108 0 102.627 0 96V12C0 5.37258 5.37258 0 12 0H123.16C120.801 4.68003 122.482 10.4437 127.078 13.0971C129.538 14.5174 132.352 14.7687 134.877 14.0234C134.885 14.1012 134.906 14.1704 134.941 14.2298C135.247 14.7557 136.733 15.7125 138.419 16.7976C140.849 18.3623 143.693 20.1936 144.012 21.3836C144.486 23.154 136.122 23.4375 131.843 21.609C131.11 20.4971 130.114 19.5344 128.882 18.8232C124.648 16.379 119.235 17.8295 116.791 22.063C114.347 26.2965 115.797 31.7099 120.031 34.1541C124.264 36.5983 129.678 35.1478 132.122 30.9143C132.568 30.142 132.884 29.3304 133.077 28.5048C138.437 25.05 149.504 23.7445 149.896 25.2066C150.321 26.7929 144.321 32.9414 140.491 35.7467C135.478 32.9194 129.153 34.5806 126.32 39.4886C123.468 44.4277 125.232 50.7845 130.259 53.6871C135.286 56.5896 141.673 54.9386 144.525 49.9995C145.901 47.6167 146.202 44.9038 145.581 42.4081C146.832 41.1674 147.651 38.9227 148.545 36.4695C150.058 32.3173 151.789 27.5681 156.205 26.081C158.513 25.3036 161.399 25.4652 164 25.9331V34.4171C163.937 34.3785 163.872 34.3406 163.808 34.3033C159.045 31.5535 152.914 33.2568 150.113 38.1077C147.312 42.9586 148.903 49.1202 153.666 51.8699C156.975 53.7806 160.946 53.5412 164 51.5896ZM140.954 0C142.406 2.89392 142.42 6.43879 140.68 9.45228C140.451 9.84911 140.199 10.2242 139.926 10.5768C141.801 13.334 147.823 18.4028 150.326 20.51L150.327 20.5107C150.772 20.8858 151.107 21.167 151.286 21.3245C152.173 22.1044 153.132 21.7995 153.981 21.5297C154.483 21.3701 154.947 21.2227 155.334 21.3196C156.261 21.5515 158.174 14.475 158.087 9.62111C157.179 9.42908 156.284 9.09261 155.437 8.60311C152.3 6.79223 150.66 3.38481 150.95 0H140.954Z" fill="#E4E8FC"/>
</svg>
