<svg width="450" height="813" viewBox="0 0 450 813" fill="none" xmlns="http://www.w3.org/2000/svg">
    <g clip-path="url(#clip0_8163_43615)">
        <path d="M450 1H0V813H450V1Z" fill="white" />
        <path d="M450 0H0V812H450V0Z" fill="#F0F3FF" />
        <path d="M450 0H0V812H450V0Z" fill="url(#paint0_linear_8163_43615)" />
        <path fill-rule="evenodd" clip-rule="evenodd"
            d="M400 0H0V26.3681C0.0327741 26.3676 0.0656082 26.3671 0.0984959 26.3665C2.14146 26.3329 4.39142 26.2958 5.32474 28.0718C5.705 28.77 5.74377 29.5441 5.78179 30.3034C5.80728 30.8122 5.83243 31.3144 5.95987 31.7824C6.21408 32.8517 6.90782 33.7253 7.59544 34.5912C8.33951 35.5283 9.07641 36.4562 9.24146 37.6134C9.42 38.8054 9.02973 39.897 8.635 41.001C8.32762 41.8608 8.01754 42.7281 7.97119 43.6563C7.97119 44.4506 8.15226 45.2614 8.33265 46.0692C8.60973 47.3099 8.88522 48.5435 8.50052 49.6993C8.22396 50.364 7.74512 50.884 7.26028 51.4105C6.8172 51.8917 6.36911 52.3783 6.06583 52.9858C5.60671 53.8479 5.55203 54.8348 5.497 55.8279C5.45052 56.6667 5.40379 57.5099 5.11298 58.2866C4.73647 59.2921 4.02519 60.0368 3.30987 60.7859C2.81846 61.3003 2.32514 61.8168 1.93716 62.4213C1.41567 63.2047 1.0726 64.1133 0.732166 65.0148C0.504469 65.6177 0.277947 66.2177 0 66.7748V111.672C1.03269 111.916 2.03205 112.076 2.99582 112.143C12.0997 112.78 18.7688 109.387 25.9672 100.799C29.884 96.1348 33.6949 91.788 37.5058 87.7593C36.7211 87.1165 35.9845 86.4253 35.2312 85.7184C34.8666 85.3764 34.4981 85.0306 34.1183 84.6849C32.5305 86.8052 29.9899 87.9714 27.3434 88.1835C24.6969 88.3954 22.1563 87.6533 19.7216 86.4872C17.7102 85.533 15.9106 84.1548 14.5344 82.3525C11.7821 78.748 11.6762 73.4471 13.8993 69.4185C16.1223 65.4959 20.4626 62.8454 25.0145 62.5273C28.1903 62.3153 31.5778 63.2694 33.4832 65.8139C35.1293 67.9899 35.3011 70.6992 35.4759 73.4569C35.5821 75.1329 35.6895 76.8268 36.1297 78.4299C36.5073 79.4023 37.3247 80.4849 38.1617 81.5934C38.9673 82.6602 39.791 83.751 40.2582 84.7909C52.2203 72.7049 63.7589 64.0115 77.3088 57.9686C77.3506 57.8288 77.3943 57.691 77.4374 57.5549C77.7214 56.6588 77.9801 55.8425 77.5206 55.1062C77.0971 54.4701 76.3561 54.152 75.6151 53.834C72.7823 52.8884 71.6133 51.9426 68.9132 49.7584L68.8401 49.6993C66.6659 47.9406 65.2183 46.0495 64.5495 45.1759C64.3717 44.9436 64.249 44.7833 64.1823 44.7165C61.0045 40.6247 59.5572 38.0975 58.5922 36.4122C57.5319 34.5607 57.0536 33.7256 55.5019 32.9486C53.9494 32.2197 52.7749 32.2257 51.5911 32.2318C50.192 32.2391 48.78 32.2463 46.7156 31.0403C45.8687 30.5102 43.7514 29.1319 42.4811 26.4816C41.3167 24.0432 41.3168 21.2867 42.0578 18.6363C42.9046 15.4558 43.9631 12.9114 46.9272 11.4272C48.7268 10.579 51.4791 9.83688 53.3846 10.049C57.6189 10.473 61.6417 12.8054 63.7589 16.5159C65.876 20.2266 65.7701 25.1034 63.2296 28.4959C63.1463 28.607 63.0558 28.7182 62.9638 28.8313C62.7046 29.1496 62.4331 29.483 62.2769 29.874C61.7476 31.1463 62.2768 32.5245 62.912 33.6907C66.2995 40.6878 71.4866 47.2609 78.7908 49.6993C79.6377 47.5789 80.0611 45.3526 79.9553 43.1262C79.9553 42.384 79.9552 41.536 79.5317 40.7939C78.9648 39.5637 77.8076 38.8403 76.7450 38.1714C76.6087 38.0909 76.4812 38.0111 76.3561 37.9314C73.2863 35.8111 70.5339 32.6305 70.2163 28.92C70.0046 25.4214 71.8041 22.1348 74.133 19.4845C75.1916 18.3182 76.2502 17.6821 77.8381 17.4701C78.0441 17.4444 78.3127 17.3997 78.6118 17.35C79.5429 17.1954 80.7706 16.9916 81.3314 17.1521C83.8719 17.5761 85.6716 18.0001 88.0005 19.2724C90.3294 20.5446 92.3406 22.4529 93.0817 24.9973C93.5051 26.4505 93.5052 27.9658 93.2935 29.344C92.5524 34.8569 88.8474 39.8397 83.872 42.2781C83.7662 42.3488 83.6486 42.4077 83.5309 42.4665C83.2957 42.5844 83.0605 42.7021 82.9193 42.9142C82.8135 43.1261 82.7076 43.3384 82.7076 43.6563C81.9666 47.791 81.649 51.9257 82.2842 56.0603C89.8002 53.0918 97.8454 50.9715 106.843 49.5932C108.114 47.3669 108.537 44.9285 108.431 42.2781V41.7481C108.114 37.9314 107.69 33.2666 105.679 30.1921C104.547 28.4102 103.387 27.9209 102.27 27.4496C101.193 26.9954 100.156 26.5579 99.2215 24.9973C97.2102 21.6048 97.7396 16.0919 101.127 13.0174C103.386 10.961 106.043 10.6996 107.166 10.5889C107.201 10.5855 107.235 10.5822 107.267 10.579C107.351 10.579 107.458 10.5763 107.584 10.5731C109.04 10.5364 113.113 10.4334 115.841 13.6535C118.17 16.304 118.594 20.1206 117.429 22.983C116.63 25.0101 115.322 25.8562 114.044 26.6827C112.782 27.4988 111.55 28.2959 110.866 30.1921C110.212 31.9787 110.56 33.3304 111.028 35.149C111.393 36.5682 111.832 38.2716 111.925 40.6878C111.925 44.2924 111.184 47.2608 110.548 49.0631C113.724 49.5933 118.382 50.0173 122.934 47.791C126.184 46.216 127.851 44.0952 129.451 42.0592C131.082 39.9836 132.643 37.9961 135.743 36.7652C140.189 34.9629 147.599 34.8569 151.622 39.8397C155.115 44.1863 154.797 50.8655 151.728 55.1062C148.446 59.7709 142.835 60.407 141.671 60.513C137.6 60.9927 135.053 59.6752 131.922 58.0563C129.518 56.8127 126.769 55.3912 122.722 54.47C115.841 52.8797 110.337 53.8339 104.62 54.8941C95.3048 56.5904 88.1064 60.0889 83.5544 62.9514C84.613 64.3296 85.8833 65.4959 87.4712 66.556C87.577 66.609 87.6564 66.662 87.7358 66.715C87.8152 66.768 87.8946 66.821 88.0005 66.8741C89.0591 67.6162 98.3748 73.447 99.0099 72.917C102.503 70.3726 107.267 69.7365 111.289 71.2207C115.312 72.7049 118.488 76.4156 119.441 80.5502C119.758 81.9285 119.864 83.4127 119.441 84.7909C119.017 85.957 118.17 87.0172 117.323 87.9714C114.889 90.5158 111.925 92.7422 108.431 93.5903C104.938 94.4385 101.021 93.5903 98.5864 91.0459C95.093 87.2293 96.4693 80.4443 98.163 76.4156C97.6337 77.6878 87.8947 71.6448 86.5185 70.6907C85.4599 69.8425 82.0725 66.8741 80.1671 64.1176L75.4033 66.3439C70.9572 68.6764 67.4639 70.7967 65.2409 72.1749C62.171 74.1891 58.6776 76.7336 54.9726 79.8081C55.6077 81.1864 56.5605 83.5187 57.3015 86.3812C58.2206 89.9008 58.2837 92.2864 58.337 94.301C58.388 96.2309 58.43 97.8201 59.2069 99.7393C61.1123 104.51 65.876 108.963 70.0045 108.751C74.1068 108.546 78.2533 107.942 82.3869 107.34C84.6533 107.011 86.9157 106.681 89.165 106.418C91.5151 106.101 93.8652 105.896 96.2152 105.693C97.7819 105.558 99.3486 105.422 100.915 105.252C101.339 105.252 101.762 105.252 102.08 104.934C102.503 104.722 102.821 104.298 103.138 103.874C105.361 100.905 108.961 99.1032 112.56 98.3611C117.641 97.3009 123.04 97.1948 126.957 100.905C130.132 103.874 131.297 108.645 131.191 112.886C131.191 119.034 128.544 125.501 123.463 129C118.276 132.499 110.443 131.862 106.843 126.774C105.567 124.96 104.852 122.682 104.148 120.443C103.043 116.924 101.968 113.504 98.7982 112.143C96.9985 111.401 94.9872 111.507 92.9759 111.719C86.3068 112.355 79.6377 113.309 72.9686 114.476V119.141C78.4732 120.095 84.6131 121.261 88.1064 125.714C90.8588 129.212 91.3879 134.195 89.8 138.329C88.1063 142.464 84.613 145.644 80.3787 147.235C78.1556 148.083 75.6151 148.507 73.2861 147.765C69.687 146.704 67.3581 143.312 66.0878 139.814C64.2882 134.831 64.3939 129.212 66.2994 124.335C66.4136 124.021 66.5433 123.706 66.6738 123.389C67.0271 122.532 67.3866 121.66 67.4639 120.731C67.7814 117.551 65.5585 114.794 63.2296 112.674C61.8534 111.507 58.8894 109.069 56.9839 109.811C55.6149 110.456 54.1234 113.187 53.0219 115.204C52.6755 115.838 52.3676 116.402 52.1143 116.808C52.0852 116.867 52.0481 116.925 52.0096 116.985C51.9081 117.145 51.7968 117.319 51.7968 117.551C51.7968 117.974 51.9026 118.293 52.1143 118.716C55.0784 124.441 58.36 131.439 53.9139 137.450C51.3733 140.662 46.9272 142.146 42.7987 141.722C40.4698 141.404 38.0351 140.556 36.5531 138.754C32.6363 134.195 34.0125 125.078 37.7175 120.837C40.0464 118.08 43.5397 116.49 47.1389 116.278C47.5624 116.278 48.0917 116.278 48.5152 116.066C49.0445 115.747 49.362 115.218 49.4679 115.005C56.7721 98.7851 52.3261 91.1519 52.3261 91.1519C52.1139 90.7876 51.9277 90.3102 51.7178 89.772C51.1949 88.4312 50.5249 86.7132 48.9385 85.427C36.553 97.831 27.6609 113.097 26.6023 125.608C26.6023 125.608 27.9785 201.197 29.2488 219.433C30.6249 237.667 34.9652 313.682 34.9652 313.682C34.9652 313.682 37.9293 311.986 42.6929 309.017C41.6343 294.492 42.587 269.897 56.5604 248.693C57.7249 246.891 58.9952 245.195 60.2655 243.605L61.5358 242.014C65.1349 237.667 68.9459 233.957 72.9686 230.671C72.9686 230.246 72.8627 229.717 72.5452 229.186C72.5292 229.154 72.5108 229.116 72.49 229.073C72.2347 228.545 71.6105 227.254 70.5338 226.959C70.108 226.838 69.822 226.961 69.2941 227.188C68.9034 227.357 68.3803 227.582 67.5698 227.808C67.0934 227.913 66.6435 228.073 66.1936 228.232C65.7437 228.391 65.2938 228.55 64.8174 228.656C61.8533 229.186 58.7834 228.974 56.2428 227.384C53.067 225.475 51.1616 221.553 51.7968 217.948C52.5378 214.344 56.0312 211.450 59.7362 211.693C61.6417 211.906 63.4413 212.86 64.9233 214.131C66.9346 215.934 68.9459 217.736 70.3221 220.175C70.9572 221.341 71.3807 222.507 71.6983 223.779C71.7331 223.953 71.745 224.117 71.7567 224.276C71.7803 224.6 71.8028 224.908 72.0159 225.263C72.083 225.450 72.1501 225.492 72.2182 225.611C72.4723 226.053 72.7404 226.52 73.0743 226.854C73.2008 226.948 73.3272 227.062 73.4621 227.184C73.779 227.47 74.1426 227.797 74.6624 228.019C75.2975 228.232 75.7209 228.338 76.1443 228.338C76.1443 228.338 76.2503 228.338 76.3561 228.126L78.7908 226.43C80.0082 225.635 81.252 224.866 82.4959 224.098C83.7397 223.329 84.9836 222.56 86.2009 221.765C86.9409 221.394 87.6809 220.972 88.3847 220.57C88.6877 220.397 88.984 220.228 89.2708 220.069C89.3766 220.069 89.456 220.016 89.5354 219.963C89.6148 219.91 89.6942 219.856 89.8 219.856C88.7415 218.054 87.8947 215.934 87.5771 215.086C87.2596 214.238 85.1423 206.816 85.6716 205.439C85.6716 205.439 84.1895 205.439 82.4958 205.12C80.2728 204.908 76.8854 204.06 74.8741 200.456C73.4979 197.911 73.9213 194.624 75.5092 192.08C75.6258 191.897 75.745 191.687 75.8763 191.456C76.5796 190.219 77.63 188.371 80.4846 186.674C81.8256 185.834 83.0338 185.792 84.0043 185.758C84.2596 185.749 84.4984 185.741 84.7189 185.719C85.8833 185.719 87.5771 186.143 88.5298 186.78C91.4939 188.582 93.5052 192.08 93.717 195.579C93.8228 199.077 92.129 202.681 89.2708 204.802C88.7415 205.226 90.8587 213.919 91.1763 214.979V215.51L91.2347 215.662C91.7296 216.952 92.043 217.768 92.5525 218.584C93.088 218.341 93.6179 218.097 94.1422 217.856C95.8981 217.048 97.5911 216.269 99.2215 215.616L99.223 215.615C100.069 215.298 100.916 214.979 101.762 214.556C104.62 213.496 107.161 212.648 109.49 211.906C111.078 209.254 114.042 206.498 115.418 205.65C118.382 203.954 122.193 203.53 125.157 205.12C126.11 205.65 127.062 206.392 127.592 207.452C128.756 209.467 128.544 212.117 127.38 214.131C126.216 216.146 124.31 217.63 122.299 218.796C120.711 219.644 119.017 220.387 117.218 220.281C114.731 220.281 112.549 218.859 110.473 217.507L110.337 217.418C110.209 217.418 110.119 217.34 110.022 217.255C109.958 217.2 109.891 217.142 109.807 217.1C105.996 217.948 100.915 219.433 95.5165 221.765C96.681 222.931 98.0571 223.779 99.7509 224.415C99.8567 224.415 100.068 224.521 100.28 224.627C100.421 224.674 100.745 224.789 101.194 224.949C103.772 225.866 110.505 228.26 110.866 227.808C113.195 225.157 116.053 223.567 119.441 224.098C122.934 224.627 126.004 226.96 127.486 230.14C128.015 231.2 128.333 232.367 128.121 233.532C128.015 234.593 127.486 235.547 126.957 236.395C125.475 238.834 123.463 241.166 120.923 242.438C118.276 243.711 114.995 243.816 112.666 242.12C109.172 239.682 107.584 234.169 109.807 230.565C109.807 230.565 101.55 228.55 100.598 228.232C97.9512 227.384 94.2462 225.263 92.6583 223.143C88.2123 225.369 83.2368 228.444 78.8966 232.155C79.5317 233.109 81.0139 235.123 83.5544 236.077C84.2955 236.395 85.4599 236.819 87.0478 236.713C87.8241 236.648 88.4027 236.346 88.8803 236.096C89.1843 235.938 89.4473 235.8 89.6943 235.759C92.5525 235.123 95.6223 235.229 98.2688 236.713C101.445 238.515 103.562 242.226 103.032 245.83C102.503 249.435 99.1157 252.51 95.4106 252.403C93.5051 252.403 91.7056 251.449 90.2236 250.178C88.1064 248.482 86.095 246.678 84.7189 244.453L83.2369 240.954C82.7076 239.576 82.39 238.94 81.7549 238.092C81.0139 237.138 80.3786 236.607 79.8493 236.184C79.2142 235.653 78.1556 235.017 76.7795 234.486C74.7682 236.395 72.2277 239.046 69.8987 242.65C69.8987 242.65 68.84 244.347 67.7814 246.149C54.7608 270.745 61.8533 291.736 63.6529 296.083C85.354 282.3 112.666 263.747 120.711 252.934C123.178 249.659 125.965 246.408 128.839 243.054C141.131 228.709 155.023 212.499 152.363 184.659C148.975 185.189 145.482 185.295 142.2 184.659C137.331 183.811 132.779 181.372 130.238 177.238C129.64 176.302 129.161 175.286 128.683 174.275C127.81 172.424 126.943 170.589 125.369 169.286C125.183 169.127 124.992 168.975 124.8 168.823C124.224 168.365 123.649 167.909 123.252 167.272C122.463 165.98 122.791 164.396 123.118 162.817C123.273 162.064 123.429 161.312 123.463 160.594C123.463 158.852 122.734 157.301 122.004 155.751C121.4 154.468 120.797 153.185 120.605 151.794C120.309 149.567 121.102 147.341 121.894 145.115C122.234 144.16 122.574 143.206 122.828 142.252C122.873 142.095 122.918 141.935 122.963 141.772C123.561 139.634 124.263 137.126 126.427 136.633C127.245 136.444 128.025 136.629 128.789 136.811C129.312 136.934 129.828 137.058 130.344 137.058C131.445 137.058 132.523 136.654 133.599 136.252C134.799 135.803 135.997 135.355 137.225 135.467C138.453 135.584 139.423 136.316 140.402 137.055C141.195 137.653 141.994 138.257 142.941 138.541C143.768 138.847 144.685 138.901 145.595 138.955C146.899 139.032 148.19 139.108 149.187 139.92C149.81 140.374 150.191 141.039 150.572 141.707C150.903 142.287 151.235 142.869 151.728 143.312C152.463 143.992 153.409 144.339 154.373 144.692C155.214 145 156.069 145.314 156.809 145.856C157.733 146.584 158.287 147.601 158.83 148.597C159.157 149.198 159.481 149.791 159.879 150.309C160.522 151.138 161.365 151.786 162.199 152.428C163.287 153.266 164.361 154.093 164.96 155.292C165.691 156.757 165.51 158.433 165.326 160.138C165.19 161.394 165.053 162.665 165.278 163.88C165.383 164.356 165.542 164.808 165.701 165.258C165.86 165.709 166.019 166.159 166.124 166.636C166.594 168.424 166.397 170.295 166.198 172.176C166.173 172.414 166.148 172.652 166.124 172.891C165.807 175.542 164.536 178.086 162.631 180.101C164.854 194.095 166.018 220.811 151.304 246.149C151.304 246.149 192.801 247.845 228.899 221.871C224.876 218.054 221.065 215.827 218.419 214.556C218.419 214.556 210.373 210.633 197.988 211.587C197.776 211.587 197.141 211.587 196.612 212.117C196.294 212.435 196.082 212.86 195.871 213.283C194.495 216.57 191.636 219.327 188.355 220.598C183.168 222.613 174.064 220.704 171.206 215.51C170.041 213.496 170.041 210.951 170.57 208.619C171.523 204.59 174.487 200.879 178.51 199.608C185.602 197.487 191.107 203 195.447 207.771C195.513 207.836 195.574 207.902 195.633 207.965C195.861 208.21 196.064 208.428 196.4 208.512H197.247C197.721 208.407 198.384 208.308 199.135 208.196C201.404 207.859 204.47 207.401 205.504 206.287C206.986 204.802 205.61 201.091 204.975 199.501C203.81 196.533 202.01 193.458 198.941 192.716C198.033 192.489 197.126 192.532 196.219 192.576C195.856 192.593 195.493 192.61 195.13 192.61C189.837 192.61 184.544 190.808 180.521 187.522C177.663 185.189 175.334 181.69 175.652 177.98C175.758 175.542 177.028 173.315 178.616 171.513C181.474 168.12 185.708 165.894 190.154 165.682C194.6 165.576 199.047 167.802 201.450 171.513C204.234 176.284 203.387 182.326 202.328 187.839C203.028 188.102 203.487 188.277 203.836 188.409C204.752 188.757 204.905 188.815 206.668 189.43C209.95 183.705 213.126 177.768 215.984 171.725V171.724C216.831 169.922 217.678 168.12 217.572 166.106C217.376 162.58 214.53 160.38 211.605 158.121C209.782 156.713 207.929 155.281 206.668 153.49C203.069 148.402 205.186 140.768 210.268 137.164C215.243 133.558 222.124 133.347 228.052 135.361C232.074 136.739 236.097 139.496 237.791 143.525C239.908 148.507 238.003 153.49 235.25 157.942C233.345 161.123 230.381 163.88 226.781 164.94C226.252 165.046 225.829 165.152 225.405 165.576C225.088 165.788 224.876 166.212 224.77 166.53C223.946 168.181 223.189 169.809 222.437 171.426C221.547 173.339 220.664 175.236 219.689 177.132C217.814 180.804 216.07 183.211 214.638 185.189C212.432 188.234 210.967 190.256 210.903 194.306C210.797 200.668 215.455 205.333 217.995 207.877C224.029 213.919 231.122 216.04 234.827 216.782C234.986 216.654 235.155 216.527 235.327 216.396C235.729 216.093 236.15 215.774 236.521 215.404C240.649 212.011 243.931 208.406 246.683 204.802C246.471 203.424 246.26 202.364 246.048 201.516C245.942 200.879 245.307 198.441 244.248 195.472C243.931 194.731 243.507 193.989 242.978 193.141C242.696 192.647 242.368 192.435 241.993 192.192C241.804 192.07 241.603 191.94 241.39 191.762C240.014 190.595 238.638 189.324 237.685 187.733C235.568 184.553 234.403 180.736 233.451 177.026C232.816 174.269 232.604 171.407 233.662 168.757C235.568 163.773 241.708 161.123 246.789 162.607C251.87 164.092 255.575 169.074 256.104 174.450C256.528 178.722 254.834 182.857 252.188 186.249C251.705 186.854 251.153 187.39 250.591 187.934C250.168 188.346 249.739 188.762 249.33 189.218C249.22 189.364 248.808 189.762 248.319 190.236C247.392 191.133 246.19 192.296 246.26 192.504C246.358 192.899 246.824 193.754 247.401 194.813C247.444 194.89 247.486 194.969 247.53 195.049C248.377 196.533 249.435 198.441 250.282 200.349C252.505 196.639 262.562 179.464 266.267 164.621C267.961 157.836 267.855 153.596 266.373 149.885C265.366 147.263 263.496 144.545 262.314 142.826C262.254 142.738 262.195 142.652 262.138 142.57C260.467 140.203 259.454 139.125 258.639 138.258C257.958 137.532 257.415 136.953 256.74 135.891C253.881 131.333 252.717 123.911 256.104 117.974C258.433 114.051 261.927 112.249 263.091 111.719C267.431 109.493 272.724 109.387 277.17 111.401C282.04 113.628 284.157 119.67 283.734 124.759C283.416 128.894 281.828 132.923 280.134 136.739C279.679 137.697 279.125 138.714 278.558 139.756C277.807 141.136 277.032 142.559 276.429 143.948C275.399 146.376 274.993 148.421 274.577 150.521C274.265 152.091 273.948 153.691 273.359 155.504C273.359 155.61 273.359 155.823 273.254 155.929C272.83 158.579 272.195 161.442 271.348 164.515C271.031 166.318 270.607 168.65 270.289 170.134C274.1 173.315 278.547 175.33 283.204 176.92C283.281 176.92 283.371 176.948 283.47 176.978C283.645 177.032 283.848 177.094 284.051 177.026C284.385 177.026 284.653 176.827 284.908 176.64C284.976 176.59 285.043 176.54 285.11 176.496C289.873 172.997 296.542 172.043 302.153 174.163C303.635 174.693 305.011 175.542 306.176 176.707C308.187 178.722 309.034 181.584 309.034 184.447C309.034 187.309 308.187 190.066 307.234 192.716C307.201 192.806 307.167 192.897 307.133 192.989C306.847 193.763 306.543 194.586 306.07 195.155C305.011 196.427 303.318 197.063 301.624 197.381C297.919 198.229 293.896 198.229 290.72 196.214C287.333 193.989 285.745 189.747 285.321 185.719L285.319 185.675C285.214 184.098 285.102 182.421 284.263 181.161C283.734 180.418 282.993 179.994 282.252 179.57C280.134 178.403 277.911 177.555 275.477 177.344C273.995 185.507 277.488 193.882 282.357 200.562C283.204 201.728 284.263 203 285.639 203.106C286.274 203.106 286.804 203.106 287.439 203C291.991 202.364 296.648 204.802 299.083 208.725C301.518 212.648 301.624 217.63 299.824 221.871C298.977 223.779 297.707 225.581 296.013 226.748C293.155 228.762 289.238 228.974 285.851 228.126C283.098 227.384 280.346 226.006 278.758 223.673C277.488 221.765 276.959 219.538 276.641 217.312C276.324 215.298 276.218 213.389 276.641 211.450C277.065 209.361 278.017 207.558 279.499 206.393C276.535 201.728 273.783 196.851 271.242 191.974C270.545 190.665 270.206 188.564 269.931 186.857C269.872 186.491 269.816 186.143 269.76 185.826C269.231 182.963 269.548 181.055 270.078 178.192C270.09 178.095 270.103 177.997 270.117 177.899C270.222 177.129 270.335 176.305 269.866 175.647C269.388 174.88 268.909 174.807 268.352 174.722C268.293 174.713 268.233 174.704 268.172 174.693C264.044 186.567 257.163 200.456 245.942 214.131C244.355 216.039 242.662 217.946 240.969 219.854L240.967 219.856C241.284 220.704 242.131 222.825 244.248 224.203C246.642 225.663 249.139 225.277 250.53 225.062L250.6 225.052C251.805 224.861 252.668 224.48 253.394 224.16C253.879 223.945 254.304 223.758 254.728 223.673C259.174 222.719 263.938 222.931 267.961 225.263C272.83 228.126 276.006 233.957 275.053 239.576C274.1 245.195 268.807 249.859 263.197 249.541C259.492 249.33 256.74 247.315 255.152 246.043C252.696 244.075 251.7 242.251 250.162 239.432C249.047 237.389 247.647 234.825 245.201 231.307C245.16 231.249 245.116 231.189 245.071 231.126C244.186 229.903 242.516 227.593 239.696 225.475C238.888 224.846 238.079 224.369 237.529 224.045C237.431 223.987 237.342 223.933 237.262 223.885C229.64 231.625 220.853 238.622 211.644 244.77C211.644 244.9 211.762 245.029 211.902 245.183C211.992 245.281 212.09 245.389 212.173 245.513C212.702 246.149 213.443 246.573 213.973 246.785C214.687 247.053 215.326 246.869 216.651 246.486C216.898 246.416 217.167 246.338 217.466 246.255C218.339 245.964 219.011 245.716 219.535 245.524C220.155 245.297 220.567 245.147 220.853 245.088C224.559 244.24 228.475 244.453 231.863 246.467C235.885 248.799 238.532 253.676 237.791 258.341C236.944 263.218 231.969 266.292 227.946 266.61C222.124 266.928 215.772 261.627 214.29 256.22C214.164 255.78 214.055 255.288 213.939 254.764C213.467 252.645 212.877 249.992 210.585 247.951C209.95 247.315 209.209 246.891 208.786 246.678C181.05 264.383 149.399 274.243 129.497 270.639C129.497 270.639 83.3427 302.232 71.5923 315.908C59.9479 329.584 36.1297 361.071 36.1297 361.071C36.1297 361.071 40.5757 519.991 44.2807 521.581C45.5903 522.143 50.7616 519.87 58.3455 516.538C72.2181 510.443 94.1634 500.8 115.312 498.469C116.477 498.363 117.641 498.257 118.805 498.046C119.017 489.564 119.864 478.644 122.193 466.134H120.923C115.736 466.982 111.184 470.162 107.055 473.237C106.526 473.555 106.102 473.979 105.891 474.51C105.679 475.039 105.785 475.675 105.891 476.206C106.208 480.658 104.726 485.217 101.762 488.61C97.2103 493.804 86.0951 496.879 79.9553 492.85C77.5205 491.26 76.0384 488.504 75.4033 485.641C74.1329 480.658 75.4034 474.827 79.0026 471.223C85.6717 464.756 94.7755 467.724 102.292 470.481C102.715 470.693 103.244 470.799 103.773 470.693C104.091 470.693 104.409 470.450 104.62 470.162C105.099 469.764 105.784 469.264 106.553 468.704C108.85 467.029 111.899 464.807 112.454 463.06C113.195 460.622 109.702 457.228 108.008 455.851C105.044 453.306 101.233 450.868 97.4219 451.822C96.1763 452.154 95.1261 452.748 94.0669 453.347C93.7759 453.511 93.4842 453.676 93.1876 453.836C87.4713 457.016 80.5904 457.97 74.133 456.486C69.687 455.532 65.1349 453.094 63.3354 448.853C62.1709 446.097 62.171 442.916 62.912 440.054C64.1823 434.647 67.5698 429.771 72.3334 427.119C77.0971 424.469 83.3428 424.257 88.1064 427.119C94.0345 430.725 96.4693 437.934 98.4806 444.507C100.174 444.507 101.762 444.507 103.456 444.719C104.409 433.905 104.514 425.211 104.514 419.062C104.514 415.882 104.303 413.973 103.138 411.96C100.928 408.183 96.5616 407.406 92.0743 406.607C89.2549 406.105 86.3878 405.594 83.9778 404.326C77.2028 400.827 75.1915 391.074 78.579 384.183C81.9666 377.292 89.5883 373.263 97.2101 372.097C102.397 371.355 108.431 372.097 112.56 450.49C117.747 379.73 118.382 386.409 117.959 392.876C117.641 397.435 115.947 402.1 112.666 405.387C112.596 405.456 112.524 405.526 112.45 405.596C112.077 405.955 111.678 406.339 111.501 406.87C111.289 407.295 111.29 407.825 111.395 408.354C111.395 410.793 111.501 413.231 111.607 415.67C111.713 418.108 111.819 420.546 111.819 422.985C111.819 425.632 111.76 428.302 111.701 430.975C111.584 436.336 111.466 441.711 111.819 446.945C112.348 453.412 117.853 458.818 124.098 458.818C129.603 434.011 140.824 404.432 163.266 376.02C163.425 450.86 163.557 450.701 163.69 450.543C163.822 450.384 163.954 450.225 164.113 450.065C163.49 374.178 162.947 373.219 162.408 372.265C161.207 370.141 160.018 368.04 157.973 366.796C156.728 366.048 155.418 365.691 154.043 365.316C153.664 365.213 153.281 365.108 152.892 364.994C148.869 363.828 145.27 361.39 142.624 358.209C140.718 355.982 139.342 353.225 139.13 350.364C138.707 344.85 143.259 339.55 148.764 338.702C154.162 337.747 159.984 340.822 162.737 345.593C165.595 350.363 165.595 356.513 163.372 361.601C163.301 361.765 163.227 361.929 163.153 362.094C162.462 363.644 161.74 365.263 162.313 366.796C162.631 367.644 163.266 368.28 163.901 368.917C164.115 369.13 164.572 369.452 165.162 369.869C165.741 370.277 166.449 370.777 167.183 371.355C176.287 360.435 185.602 351.742 194.6 344.85C194.707 344.103 194.945 343.236 195.186 342.358C195.663 340.621 196.151 338.84 195.659 337.854C195.235 337.005 194.283 336.581 193.436 336.264C193.096 336.129 192.764 336.001 192.44 335.876C189.938 334.909 187.876 334.112 185.814 332.235C185.757 332.187 185.694 332.136 185.624 332.079C184.923 331.512 183.593 330.434 181.474 327.252C178.232 322.435 177.057 318.936 176.174 316.31C175.269 313.619 174.672 311.843 172.476 310.501C170.733 309.435 169.235 309.432 167.665 309.43C165.802 309.426 163.841 309.423 161.255 307.638C161.214 307.607 161.169 307.574 161.12 307.538C160.174 306.834 157.906 305.146 156.597 302.02C155.327 299.157 155.644 295.871 156.597 292.902C157.761 289.298 160.196 285.8 163.69 284.315C165.807 283.467 168.136 283.361 170.359 283.679C170.888 283.679 179.251 285.057 182.003 291.948C183.909 296.613 182.532 302.444 180.627 304.988C180.596 305.035 180.553 305.094 180.501 305.164C180.205 305.57 179.627 306.359 179.357 307.532C179.357 307.532 178.827 309.547 179.78 311.986C183.168 320.361 188.778 328.418 197.141 331.704C198.305 329.372 198.835 326.722 198.941 324.178C198.941 323.224 198.941 322.269 198.623 321.42C198.048 319.982 196.692 318.976 195.498 318.09C195.373 317.998 195.25 317.907 195.13 317.816C191.636 315.166 188.672 311.243 188.566 306.79C188.566 302.761 190.895 298.946 193.754 296.083C195.024 294.811 196.612 293.432 198.517 293.221C199.47 293.115 202.116 293.008 203.069 293.221C205.29 293.697 206.56 294.53 208.17 295.588C208.709 295.941 209.286 296.319 209.95 296.719C212.596 298.309 214.714 300.748 215.455 303.716C215.878 305.413 215.772 307.109 215.455 308.805C214.184 315.166 209.526 320.785 203.493 323.224C203.397 323.271 203.302 323.313 203.208 323.355C202.884 323.499 202.574 323.636 202.328 323.965C202.182 324.112 202.137 324.309 202.088 324.521C202.066 324.616 202.043 324.714 202.011 324.814C200.74 329.902 200.105 335.097 200.74 340.398C212.596 332.129 223.923 326.828 233.98 323.435C234.838 321.385 236.026 319.295 236.901 317.754C237.429 316.825 237.843 316.095 238.003 315.696C238.426 314.636 238.743 313.576 238.638 312.515C238.454 310.583 236.835 309.21 235.303 307.911C235.07 307.713 234.839 307.516 234.615 307.321C229.428 302.868 226.146 296.083 226.676 289.298C227.205 282.512 231.863 276.046 238.426 274.137C244.989 272.229 252.823 275.516 255.363 281.877C256.74 285.163 256.634 288.979 255.787 292.478C254.622 297.461 251.87 302.126 248.165 305.624C247.772 305.991 247.366 306.353 246.958 306.715C245.719 307.817 244.463 308.933 243.507 310.289C241.9 312.746 241.712 316.217 241.54 319.406C241.496 320.209 241.454 320.993 241.39 321.739C242.766 321.103 244.46 320.361 246.471 319.618C247.148 319.377 247.78 319.135 248.438 318.883C249.223 318.583 250.045 318.268 251.023 317.922C253.137 317.239 254.153 316.953 255.372 316.608C256.045 316.417 256.781 316.21 257.798 315.908C257.875 315.883 257.955 315.856 258.037 315.828C258.974 315.519 260.247 315.098 261.609 314.318C263.731 313.083 265.057 311.583 266.186 310.305C266.804 309.606 267.362 308.974 267.961 308.486C271.348 305.624 275.053 302.868 279.182 301.384C284.263 299.582 291.038 300.005 294.637 304.352C297.919 308.275 299.295 313.788 298.236 318.876C297.495 322.481 295.907 325.449 293.79 327.782C287.65 334.567 278.652 334.037 276.853 333.825C273.889 333.612 269.125 333.189 266.055 329.797C265.848 329.565 265.651 329.325 265.452 329.082C264.735 328.208 263.993 327.303 262.668 326.722C260.233 325.662 257.692 326.51 256.422 326.934C251.616 328.476 249.381 328.865 247.306 329.225C244.672 329.684 242.295 330.096 235.25 332.764C234.757 332.963 234.229 333.172 233.665 333.395C231.81 334.13 229.566 335.019 226.887 336.157C220.536 339.02 210.268 344.214 197.247 353.332C198.455 354.34 199.535 355.391 200.326 356.16C200.783 356.605 201.143 356.954 201.450 357.148C202.116 357.679 202.963 358.209 203.916 358.315C205.657 358.509 207.222 357.450 208.61 356.368C208.74 356.273 208.87 356.18 208.997 356.088C213.761 352.696 220.112 351.423 225.617 353.225C231.122 355.134 235.568 360.435 235.78 366.266C235.991 372.097 231.545 377.928 225.829 378.776C222.759 379.2 219.689 378.352 216.937 376.868C213.02 374.853 209.844 371.567 207.727 367.75C207.437 367.234 207.176 366.707 206.918 366.185C206.328 364.995 205.752 363.832 204.869 362.873C203.071 360.949 200.548 360.152 198.022 359.353C196.233 358.787 194.443 358.222 192.907 357.254C187.084 362.555 181.474 368.598 176.499 374.959C179.039 376.444 182.744 378.882 186.344 382.805C188.713 385.361 190.122 387.524 191.346 389.403C192.965 391.89 194.262 393.881 197.035 395.633C202.331 399.065 208.442 398.416 210.572 398.19L210.691 398.177C216.286 397.533 218.755 395.755 222.371 393.151C224.707 391.467 227.523 389.44 231.969 387.151C235.058 385.566 238.201 384.089 241.359 382.605C242.638 382.004 243.92 381.401 245.201 380.79C245.26 380.76 245.322 380.731 245.384 380.7C245.769 380.515 246.198 380.307 246.471 379.942C246.774 379.563 246.914 379.13 247.047 378.72C247.1 378.557 247.152 378.396 247.212 378.246C248.483 373.793 251.87 370.188 255.787 367.75C261.186 364.358 267.537 361.919 273.677 364.569C278.652 366.69 282.04 371.779 283.734 376.655C286.274 383.865 286.168 392.452 281.617 398.707C277.17 404.962 267.643 407.612 261.291 403.16C259.044 401.605 257.255 399.292 255.496 397.019C252.698 393.404 249.98 389.891 245.624 389.695C243.19 389.59 240.861 390.65 238.638 391.71C231.228 395.314 223.923 399.237 216.831 403.372C217.413 404.909 217.625 405.492 217.836 406.075C218.048 406.658 218.26 407.242 218.842 408.779C225.617 407.506 233.133 406.341 239.061 409.945C243.719 412.808 246.471 418.427 246.365 423.939C246.26 429.452 243.401 434.753 239.273 438.251C237.05 440.159 234.298 441.75 231.333 441.963C226.782 442.28 222.547 439.417 219.583 435.919C215.349 430.936 213.02 424.363 213.126 417.79C213.126 417.392 213.139 416.995 213.152 416.597C213.192 415.405 213.232 414.212 212.914 413.019C211.961 409.203 208.15 406.977 204.551 405.492C202.54 404.644 197.882 403.054 196.083 404.856C194.644 406.213 194.085 410.415 193.702 413.291C193.606 414.012 193.521 414.651 193.436 415.14C193.436 415.246 193.424 415.352 193.413 415.458C193.389 415.67 193.365 415.882 193.436 416.094C193.525 416.537 193.835 416.833 194.12 417.103C194.176 417.156 194.231 417.208 194.283 417.26C200.211 422.667 207.092 429.346 204.339 438.251C202.857 443.234 198.305 446.839 193.224 448.111C190.366 448.853 187.19 448.853 184.65 447.369C178.192 443.765 175.863 432.527 178.298 426.06C179.886 421.925 183.273 418.427 187.402 416.624C187.931 416.412 188.461 416.2 188.884 415.776C189.307 415.352 189.413 414.716 189.519 414.08V414.079C190.366 408.991 191.001 403.478 189.413 398.495C189.367 398.343 189.32 398.186 189.272 398.027C188.219 394.518 186.651 389.299 181.792 385.243C178.192 382.274 174.381 381.214 172.264 380.79C171.03 382.468 170.089 383.925 169.014 385.591C168.798 385.925 168.577 386.267 168.347 386.622C143.682 426.377 150.352 470.268 156.915 493.698C186.661 489.458 220.112 482.46 241.073 468.149C241.557 467.82 242.039 467.494 242.519 467.169C273.484 446.195 294.512 431.951 306.917 381.109C319.514 329.478 314.221 396.163 314.221 396.163C314.221 396.163 342.868 379.175 450 380.728V0ZM450 401.107C374.185 402.415 373.446 403.395 372.803 404.25C371.605 405.839 370.737 406.991 370.326 408.991C369.23 413.981 371.229 420.568 450 423.092V401.107ZM450 431.953C374.817 432.276 374.689 432.507 374.56 432.738C374.296 433.216 374.031 433.692 373.29 434.965C373.858 435.433 374.431 435.908 450 436.393V431.953ZM450 464.563C371.878 465.869 368.353 466.227 365.033 465.71C362.387 465.286 359.846 464.332 357.941 462.424C355.082 459.455 354.659 454.897 355.294 450.974C356.247 445.249 359.423 439.948 363.975 436.238C364.169 436.081 364.371 435.925 364.575 435.768C365.482 435.067 366.44 434.326 367.045 433.450C369.162 430.619 368.527 426.696 367.362 423.409C366.727 421.607 365.139 417.579 362.916 417.366C361.19 417.201 358.189 419.082 356.04 420.427C355.422 420.815 354.874 421.158 354.447 421.394C354.13 421.5 353.918 421.713 353.707 421.925H353.706C353.389 422.243 353.389 422.773 353.389 423.198C353.071 430.3 352.436 438.782 344.92 442.068C340.686 443.87 335.605 442.811 331.899 440.159C329.782 438.676 327.983 436.449 327.559 433.905C326.289 427.438 332.64 419.381 338.463 417.473C342.168 416.2 346.508 416.518 350.001 418.321C350.06 418.35 350.121 418.382 350.184 418.414C350.572 418.615 351.027 418.85 351.483 418.85C352.088 418.85 352.552 418.568 352.817 418.407C352.877 418.37 352.926 418.34 352.965 418.321C367.15 408.037 370.22 396.905 370.22 396.905C370.75 395.209 371.279 392.453 371.491 389.06C363.975 389.59 353.071 391.286 341.215 396.587C323.537 404.539 313.374 416.2 299.507 432.527C290.509 443.128 278.97 458.289 268.067 478.432C273.995 476.948 281.087 474.404 289.873 470.268C289.873 470.268 289.873 470.450 289.768 470.587L291.991 469.633C298.236 467.3 305.435 466.982 311.151 469.951C313.356 471.054 314.576 471.903 315.654 472.654C317.268 473.778 318.565 474.68 322.372 475.887C322.505 475.927 322.638 475.967 322.772 476.007C324.754 476.596 326.72 477.181 328.406 479.068C329.5 480.301 329.755 481.312 330.055 482.501C330.219 483.154 330.398 483.861 330.735 484.687C331.872 487.249 333.467 488.129 335.257 489.118C336.801 489.97 338.49 490.903 340.156 493.062C342.048 495.467 342.64 498.523 343.237 501.611C343.509 503.015 343.782 504.425 344.179 505.784C344.232 505.976 344.287 506.173 344.342 506.37C345.17 509.331 346.144 512.808 343.861 514.796C343.07 515.527 342.068 515.839 341.058 516.152C340.312 516.383 339.561 516.616 338.886 517.022C337.51 517.737 336.527 518.991 335.546 520.243C334.49 521.592 333.437 522.935 331.899 523.595C330.352 524.311 328.67 524.121 326.986 523.93C325.676 523.783 324.364 523.635 323.113 523.913C321.912 524.136 320.786 524.714 319.672 525.286C318.134 526.076 316.619 526.854 314.962 526.67C313.942 526.557 313.044 526.048 312.137 525.535C311.349 525.09 310.555 524.64 309.669 524.443C308.323 524.163 306.948 524.417 305.574 524.671C304.354 524.898 303.136 525.123 301.941 524.974C300.417 524.783 299.121 524.02 297.826 523.256C296.962 522.747 296.098 522.238 295.166 521.899C293.865 521.404 292.449 521.234 291.041 521.065C289.126 520.834 287.225 520.604 285.639 519.566C283.801 518.34 282.85 516.281 281.903 514.232C281.541 513.449 281.18 512.667 280.77 511.934C280.656 511.781 280.515 511.574 280.346 511.328C280.045 510.887 279.657 510.319 279.182 509.707C278.617 509.071 277.958 508.529 277.3 507.987C276.97 507.717 276.641 507.445 276.324 507.163C275.265 506.103 274.418 504.83 273.677 503.452C269.019 498.788 262.138 493.38 252.717 489.352C223.288 506.632 187.614 514.372 143.259 523.489C135.637 525.08 128.015 527.412 120.605 530.38C122.828 542.36 131.191 571.09 162.525 588.372C163.478 583.389 163.16 578.3 162.313 573.317C162.313 572.999 162.313 572.681 161.996 572.469C161.827 572.132 161.525 571.996 161.195 571.847C161.11 571.809 161.024 571.77 160.937 571.727C155.115 568.865 150.881 562.927 150.14 556.46C149.928 554.764 149.928 552.962 150.457 551.371C151.41 548.51 153.739 546.177 156.491 544.798C156.886 544.601 157.258 544.411 157.616 544.226C159.757 543.13 161.377 542.299 164.007 541.937C164.96 541.831 167.395 541.937 168.347 542.254C170.147 542.572 171.523 543.95 172.794 545.435C175.44 548.51 177.557 552.432 177.134 556.567C176.71 561.019 173.429 564.623 169.724 567.062C169.547 567.176 169.368 567.289 169.19 567.401C167.875 568.229 166.565 569.054 165.913 570.455C165.489 571.303 165.383 572.257 165.383 573.211C165.277 575.861 165.701 578.406 166.654 580.951C175.334 578.3 181.474 570.667 185.497 562.504C186.238 561.125 186.873 559.535 186.344 558.05C186.132 557.415 185.708 556.885 185.285 556.354C182.427 552.325 182.321 546.601 184.861 542.254C187.402 537.908 192.166 535.257 197.141 534.833C199.364 534.621 201.693 534.939 203.81 535.999C207.198 537.802 209.315 541.406 210.268 545.117C211.009 548.191 211.008 551.477 209.526 554.234C207.939 557.202 205.61 558.793 204.445 559.429C203.452 560.026 202.553 560.249 201.746 560.449L201.587 560.489C199.023 560.898 197.39 560.825 196.051 560.764C194.957 560.715 194.06 560.675 193.013 560.913C190.486 561.516 189.361 563.761 187.579 567.32C186.224 570.023 184.49 573.484 181.474 577.557C180.204 579.254 179.039 580.632 177.134 582.011C174.487 583.919 171.629 585.085 171.629 585.085C170.947 585.365 170.392 585.562 169.932 585.725C168.822 586.121 168.267 586.319 167.818 586.993C167.077 588.266 167.183 590.704 168.347 591.446C169.331 592.072 170.389 592.473 171.523 592.901C171.732 592.98 171.944 593.06 172.158 593.143C181.156 596.853 189.837 598.868 198.094 599.716C202.222 595.157 203.492 591.234 203.916 588.478C204.022 587.63 204.022 587.205 204.022 586.529C204.022 585.854 204.022 584.927 204.128 583.071L204.132 583.017C204.553 577.646 204.768 574.898 206.245 572.045C207.409 569.713 209.209 567.592 211.538 566.32C215.984 563.988 222.018 566.002 224.77 570.242C227.522 574.484 226.993 580.42 223.923 584.449C220.959 588.478 215.772 590.704 210.797 590.597C210.599 590.597 210.381 590.59 210.149 590.582C208.886 590.537 207.195 590.478 206.033 591.552C205.61 591.976 205.186 592.506 204.445 595.368C203.916 597.277 203.598 598.868 203.493 600.139C213.232 600.564 221.912 599.503 229.957 597.701C233.98 592.718 235.25 588.372 235.674 585.297C235.771 584.616 235.779 584.226 235.79 583.695C235.802 583.068 235.819 582.248 235.991 580.526C236.016 580.261 236.04 580.002 236.064 579.749C236.543 574.638 236.797 571.924 238.108 569.5C239.379 567.169 241.073 564.942 243.401 563.775C247.847 561.444 253.881 563.458 256.634 567.698C259.386 571.939 258.857 577.876 255.787 581.905C252.823 585.933 247.636 588.159 242.66 588.159C242.482 588.159 242.27 588.147 242.034 588.134C240.872 588.067 239.128 587.968 237.897 589.114C237.262 589.749 236.944 590.492 236.521 591.976C235.885 593.778 235.674 595.263 235.568 596.323C237.791 596.323 241.602 596.216 245.836 594.414C250.494 592.401 253.352 589.538 253.987 588.795C254.708 588.022 255.054 587.55 255.437 587.024C255.843 586.469 256.291 585.856 257.269 584.767C259.069 582.753 260.974 580.844 263.409 579.572C266.267 577.982 270.395 577.664 272.936 579.996C275.265 582.117 276.535 585.191 276.324 588.372C276.112 591.552 274.524 594.52 271.983 596.323C268.49 598.868 263.726 598.868 259.492 598.231C258.347 598.032 257.694 597.879 257.147 597.751C256.531 597.608 256.049 597.495 255.152 597.383C250.494 596.959 246.365 598.974 242.978 601.412C243.402 601.836 243.825 602.26 244.354 602.578C247.542 604.741 251.628 605.403 255.449 606.021L255.787 606.076C256.634 606.183 257.586 606.289 258.539 606.076C259.429 605.898 260.17 605.42 260.887 604.957C261.022 604.869 261.157 604.783 261.291 604.698C264.997 602.366 269.231 600.351 273.677 600.458C278.123 600.458 282.781 603.002 284.157 607.243C285.004 609.681 284.581 612.437 283.734 614.876C282.993 617.314 281.722 619.541 279.923 621.343C276.218 625.054 270.184 626.114 265.42 623.994C260.656 621.767 257.586 616.36 258.116 611.166C254.093 609.999 250.176 608.515 246.471 606.818C244.142 605.758 241.39 604.38 239.273 602.472C236.838 603.002 233.027 603.744 228.158 604.38C228.158 604.663 228.064 604.945 227.97 605.228C227.922 605.37 227.875 605.511 227.84 605.652C226.57 611.06 226.782 616.572 227.84 621.979C227.84 622.297 227.84 622.615 228.158 622.827C228.326 623.164 228.629 623.301 228.959 623.449C229.043 623.487 229.13 623.526 229.216 623.569C235.038 626.432 239.273 632.369 240.014 638.836C240.019 638.895 240.025 638.956 240.031 639.018C240.139 640.185 240.299 641.912 239.696 643.924C237.897 649.543 231.228 653.36 225.088 652.936C224.029 652.936 220.536 652.512 217.466 649.861C214.29 647.211 212.702 642.865 213.02 638.73C213.443 634.277 216.725 630.673 220.43 628.234C220.607 628.121 220.785 628.007 220.963 627.895C222.279 627.067 223.588 626.242 224.241 624.842C224.664 623.994 224.77 623.039 224.77 622.085C224.876 619.435 224.453 616.89 223.5 614.452C214.925 617.102 208.68 624.735 204.657 632.792C203.916 634.171 203.281 635.761 203.81 637.246C204.022 637.882 204.445 638.411 204.869 638.942C207.727 642.971 207.833 648.695 205.292 653.042C202.752 657.283 197.988 660.039 193.013 660.463C190.684 660.676 188.355 660.357 186.344 659.297C182.956 657.601 180.839 653.89 179.886 650.18C179.145 647.105 179.145 643.819 180.627 641.062C181.998 638.422 183.999 637.044 185.689 635.88L185.708 635.867C188.336 634.089 190.392 633.551 192.356 633.039C193.319 632.786 194.26 632.54 195.236 632.157C198.971 630.761 200.24 628.777 201.825 626.298C203.251 624.07 204.932 621.441 208.891 618.481C211.411 616.598 213.824 615.366 215.904 614.305C219.329 612.556 221.848 611.271 222.441 608.303C222.759 606.924 222.441 605.652 222.23 604.91C211.644 605.97 197.988 606.183 183.803 603.744C182.215 606.289 181.051 610.635 181.051 613.179C181.051 614.972 181.134 616.438 181.208 617.728C181.383 620.784 181.501 622.844 180.309 625.902C179.886 627.067 178.086 631.521 173.746 633.005C169.406 634.488 163.795 632.581 161.784 628.871C161.138 627.667 161.055 626.627 160.974 625.606C160.963 625.456 160.951 625.308 160.937 625.16C160.62 619.646 163.478 614.027 168.242 611.06C169.44 610.316 170.7 609.758 171.956 609.202C173.028 608.727 174.098 608.253 175.122 607.666C177.134 606.606 178.933 604.91 179.674 602.789C170.465 600.882 161.255 597.701 152.574 592.824C126.427 577.982 106.526 555.612 96.3635 542.679C69.687 558.687 49.5738 580.632 49.3621 596.747C49.3621 604.062 50.3148 628.871 50.3148 628.871C50.4333 631.006 50.5518 633.193 50.6726 635.422C50.9835 641.158 51.3098 647.176 51.691 653.36L50.209 652.936C50.209 653.269 50.2957 653.572 50.3786 653.862C50.4542 654.127 50.5265 654.379 50.5265 654.632C50.8526 660.184 51.1003 665.878 51.348 671.574C51.7436 680.67 52.1394 689.771 52.8554 698.311C53.8082 709.761 55.2902 720.469 58.4659 730.328C62.5945 742.733 68.099 753.334 76.0384 762.663C83.9778 771.781 93.2934 779.096 103.35 785.563L144.167 813H450V464.563ZM79.2763 813C70.3824 810.181 60.3587 808.998 51.8014 813H79.2763Z"
            fill="white" fill-opacity="0.6" />
        <path fill-rule="evenodd" clip-rule="evenodd"
            d="M450 0H0V26.3681C0.0327741 26.3676 0.0656082 26.3671 0.0984959 26.3665C2.14146 26.3329 4.39142 26.2958 5.32474 28.0718C5.705 28.77 5.74377 29.5441 5.78179 30.3034C5.80728 30.8122 5.83243 31.3144 5.95987 31.7824C6.21408 32.8517 6.90782 33.7253 7.59544 34.5912C8.33951 35.5283 9.07641 36.4562 9.24146 37.6134C9.42 38.8054 9.02973 39.897 8.635 41.001C8.32762 41.8608 8.01754 42.7281 7.97119 43.6563C7.97119 44.4506 8.15226 45.2614 8.33265 46.0692C8.60973 47.3099 8.88522 48.5435 8.50052 49.6993C8.22396 50.364 7.74512 50.884 7.26028 51.4105C6.8172 51.8917 6.36911 52.3783 6.06583 52.9858C5.60671 53.8479 5.55203 54.8348 5.497 55.8279C5.45052 56.6667 5.40379 57.5099 5.11298 58.2866C4.73647 59.2921 4.02519 60.0368 3.30987 60.7859C2.81846 61.3003 2.32514 61.8168 1.93716 62.4213C1.41567 63.2047 1.0726 64.1133 0.732166 65.0148C0.504469 65.6177 0.277947 66.2177 0 66.7748V111.672C1.03269 111.916 2.03205 112.076 2.99582 112.143C12.0997 112.78 18.7688 109.387 25.9672 100.799C29.884 96.1348 33.6949 91.788 37.5058 87.7593C36.7211 87.1165 35.9845 86.4253 35.2312 85.7184C34.8666 85.3764 34.4981 85.0306 34.1183 84.6849C32.5305 86.8052 29.9899 87.9714 27.3434 88.1835C24.6969 88.3954 22.1563 87.6533 19.7216 86.4872C17.7102 85.533 15.9106 84.1548 14.5344 82.3525C11.7821 78.748 11.6762 73.4471 13.8993 69.4185C16.1223 65.4959 20.4626 62.8454 25.0145 62.5273C28.1903 62.3153 31.5778 63.2694 33.4832 65.8139C35.1293 67.9899 35.3011 70.6992 35.4759 73.4569C35.5821 75.1329 35.6895 76.8268 36.1297 78.4299C36.5073 79.4023 37.3247 80.4849 38.1617 81.5934C38.9673 82.6602 39.791 83.751 40.2582 84.7909C52.2203 72.7049 63.7589 64.0115 77.3088 57.9686C77.3506 57.8288 77.3943 57.691 77.4374 57.5549C77.7214 56.6588 77.9801 55.8425 77.5206 55.1062C77.0971 54.4701 76.3561 54.152 75.6151 53.834C72.7823 52.8884 71.6133 51.9426 68.9132 49.7584L68.8401 49.6993C66.6659 47.9406 65.2183 46.0495 64.5495 45.1759C64.3717 44.9436 64.249 44.7833 64.1823 44.7165C61.0045 40.6247 59.5572 38.0975 58.5922 36.4122C57.5319 34.5607 57.0536 33.7256 55.5019 32.9486C53.9494 32.2197 52.7749 32.2257 51.5911 32.2318C50.192 32.2391 48.78 32.2463 46.7156 31.0403C45.8687 30.5102 43.7514 29.1319 42.4811 26.4816C41.3167 24.0432 41.3168 21.2867 42.0578 18.6363C42.9046 15.4558 43.9631 12.9114 46.9272 11.4272C48.7268 10.579 51.4791 9.83688 53.3846 10.049C57.6189 10.473 61.6417 12.8054 63.7589 16.5159C65.876 20.2266 65.7701 25.1034 63.2296 28.4959C63.1463 28.607 63.0558 28.7182 62.9638 28.8313C62.7046 29.1496 62.4331 29.483 62.2769 29.874C61.7476 31.1463 62.2768 32.5245 62.912 33.6907C66.2995 40.6878 71.4866 47.2609 78.7908 49.6993C79.6377 47.5789 80.0611 45.3526 79.9553 43.1262C79.9553 42.384 79.9552 41.536 79.5317 40.7939C78.9648 39.5637 77.8076 38.8403 76.7450 38.1714C76.6087 38.0909 76.4812 38.0111 76.3561 37.9314C73.2863 35.8111 70.5339 32.6305 70.2163 28.92C70.0046 25.4214 71.8041 22.1348 74.133 19.4845C75.1916 18.3182 76.2502 17.6821 77.8381 17.4701C78.0441 17.4444 78.3127 17.3997 78.6118 17.35C79.5429 17.1954 80.7706 16.9916 81.3314 17.1521C83.8719 17.5761 85.6716 18.0001 88.0005 19.2724C90.3294 20.5446 92.3406 22.4529 93.0817 24.9973C93.5051 26.4505 93.5052 27.9658 93.2935 29.344C92.5524 34.8569 88.8474 39.8397 83.872 42.2781C83.7662 42.3488 83.6486 42.4077 83.5309 42.4665C83.2957 42.5844 83.0605 42.7021 82.9193 42.9142C82.8135 43.1261 82.7076 43.3384 82.7076 43.6563C81.9666 47.791 81.649 51.9257 82.2842 56.0603C89.8002 53.0918 97.8454 50.9715 106.843 49.5932C108.114 47.3669 108.537 44.9285 108.431 42.2781V41.7481C108.114 37.9314 107.69 33.2666 105.679 30.1921C104.547 28.4102 103.387 27.9209 102.27 27.4496C101.193 26.9954 100.156 26.5579 99.2215 24.9973C97.2102 21.6048 97.7396 16.0919 101.127 13.0174C103.386 10.961 106.043 10.6996 107.166 10.5889C107.201 10.5855 107.235 10.5822 107.267 10.579C107.351 10.579 107.458 10.5763 107.584 10.5731C109.04 10.5364 113.113 10.4334 115.841 13.6535C118.17 16.304 118.594 20.1206 117.429 22.983C116.63 25.0101 115.322 25.8562 114.044 26.6827C112.782 27.4988 111.55 28.2959 110.866 30.1921C110.212 31.9787 110.56 33.3304 111.028 35.149C111.393 36.5682 111.832 38.2716 111.925 40.6878C111.925 44.2924 111.184 47.2608 110.548 49.0631C113.724 49.5933 118.382 50.0173 122.934 47.791C126.184 46.216 127.851 44.0952 129.451 42.0592C131.082 39.9836 132.643 37.9961 135.743 36.7652C140.189 34.9629 147.599 34.8569 151.622 39.8397C155.115 44.1863 154.797 50.8655 151.728 55.1062C148.446 59.7709 142.835 60.407 141.671 60.513C137.6 60.9927 135.053 59.6752 131.922 58.0563C129.518 56.8127 126.769 55.3912 122.722 54.47C115.841 52.8797 110.337 53.8339 104.62 54.8941C95.3048 56.5904 88.1064 60.0889 83.5544 62.9514C84.613 64.3296 85.8833 65.4959 87.4712 66.556C87.577 66.609 87.6564 66.662 87.7358 66.715C87.8152 66.768 87.8946 66.821 88.0005 66.8741C89.0591 67.6162 98.3748 73.447 99.0099 72.917C102.503 70.3726 107.267 69.7365 111.289 71.2207C115.312 72.7049 118.488 76.4156 119.441 80.5502C119.758 81.9285 119.864 83.4127 119.441 84.7909C119.017 85.957 118.17 87.0172 117.323 87.9714C114.889 90.5158 111.925 92.7422 108.431 93.5903C104.938 94.4385 101.021 93.5903 98.5864 91.0459C95.093 87.2293 96.4693 80.4443 98.163 76.4156C97.6337 77.6878 87.8947 71.6448 86.5185 70.6907C85.4599 69.8425 82.0725 66.8741 80.1671 64.1176L75.4033 66.3439C70.9572 68.6764 67.4639 70.7967 65.2409 72.1749C62.171 74.1891 58.6776 76.7336 54.9726 79.8081C55.6077 81.1864 56.5605 83.5187 57.3015 86.3812C58.2206 89.9008 58.2837 92.2864 58.337 94.301C58.388 96.2309 58.43 97.8201 59.2069 99.7393C61.1123 104.51 65.876 108.963 70.0045 108.751C74.1068 108.546 78.2533 107.942 82.3869 107.34C84.6533 107.011 86.9157 106.681 89.165 106.418C91.5151 106.101 93.8652 105.896 96.2152 105.693C97.7819 105.558 99.3486 105.422 100.915 105.252C101.339 105.252 101.762 105.252 102.08 104.934C102.503 104.722 102.821 104.298 103.138 103.874C105.361 100.905 108.961 99.1032 112.56 98.3611C117.641 97.3009 123.04 97.1948 126.957 100.905C130.132 103.874 131.297 108.645 131.191 112.886C131.191 119.034 128.544 125.501 123.463 129C118.276 132.499 110.443 131.862 106.843 126.774C105.567 124.96 104.852 122.682 104.148 120.443C103.043 116.924 101.968 113.504 98.7982 112.143C96.9985 111.401 94.9872 111.507 92.9759 111.719C86.3068 112.355 79.6377 113.309 72.9686 114.476V119.141C78.4732 120.095 84.6131 121.261 88.1064 125.714C90.8588 129.212 91.3879 134.195 89.8 138.329C88.1063 142.464 84.613 145.644 80.3787 147.235C78.1556 148.083 75.6151 148.507 73.2861 147.765C69.687 146.704 67.3581 143.312 66.0878 139.814C64.2882 134.831 64.3939 129.212 66.2994 124.335C66.4136 124.021 66.5433 123.706 66.6738 123.389C67.0271 122.532 67.3866 121.66 67.4639 120.731C67.7814 117.551 65.5585 114.794 63.2296 112.674C61.8534 111.507 58.8894 109.069 56.9839 109.811C55.6149 110.456 54.1234 113.187 53.0219 115.204C52.6755 115.838 52.3676 116.402 52.1143 116.808C52.0852 116.867 52.0481 116.925 52.0096 116.985C51.9081 117.145 51.7968 117.319 51.7968 117.551C51.7968 117.974 51.9026 118.293 52.1143 118.716C55.0784 124.441 58.36 131.439 53.9139 137.450C51.3733 140.662 46.9272 142.146 42.7987 141.722C40.4698 141.404 38.0351 140.556 36.5531 138.754C32.6363 134.195 34.0125 125.078 37.7175 120.837C40.0464 118.08 43.5397 116.49 47.1389 116.278C47.5624 116.278 48.0917 116.278 48.5152 116.066C49.0445 115.747 49.362 115.218 49.4679 115.005C56.7721 98.7851 52.3261 91.1519 52.3261 91.1519C52.1139 90.7876 51.9277 90.3102 51.7178 89.772C51.1949 88.4312 50.5249 86.7132 48.9385 85.427C36.553 97.831 27.6609 113.097 26.6023 125.608C26.6023 125.608 27.9785 201.197 29.2488 219.433C30.6249 237.667 34.9652 313.682 34.9652 313.682C34.9652 313.682 37.9293 311.986 42.6929 309.017C41.6343 294.492 42.587 269.897 56.5604 248.693C57.7249 246.891 58.9952 245.195 60.2655 243.605L61.5358 242.014C65.1349 237.667 68.9459 233.957 72.9686 230.671C72.9686 230.246 72.8627 229.717 72.5452 229.186C72.5292 229.154 72.5108 229.116 72.49 229.073C72.2347 228.545 71.6105 227.254 70.5338 226.959C70.108 226.838 69.822 226.961 69.2941 227.188C68.9034 227.357 68.3803 227.582 67.5698 227.808C67.0934 227.913 66.6435 228.073 66.1936 228.232C65.7437 228.391 65.2938 228.55 64.8174 228.656C61.8533 229.186 58.7834 228.974 56.2428 227.384C53.067 225.475 51.1616 221.553 51.7968 217.948C52.5378 214.344 56.0312 211.450 59.7362 211.693C61.6417 211.906 63.4413 212.86 64.9233 214.131C66.9346 215.934 68.9459 217.736 70.3221 220.175C70.9572 221.341 71.3807 222.507 71.6983 223.779C71.7331 223.953 71.745 224.117 71.7567 224.276C71.7803 224.6 71.8028 224.908 72.0159 225.263C72.083 225.450 72.1501 225.492 72.2182 225.611C72.4723 226.053 72.7404 226.52 73.0743 226.854C73.2008 226.948 73.3272 227.062 73.4621 227.184C73.779 227.47 74.1426 227.797 74.6624 228.019C75.2975 228.232 75.7209 228.338 76.1443 228.338C76.1443 228.338 76.2503 228.338 76.3561 228.126L78.7908 226.43C80.0082 225.635 81.252 224.866 82.4959 224.098C83.7397 223.329 84.9836 222.56 86.2009 221.765C86.9409 221.394 87.6809 220.972 88.3847 220.57C88.6877 220.397 88.984 220.228 89.2708 220.069C89.3766 220.069 89.456 220.016 89.5354 219.963C89.6148 219.91 89.6942 219.856 89.8 219.856C88.7415 218.054 87.8947 215.934 87.5771 215.086C87.2596 214.238 85.1423 206.816 85.6716 205.439C85.6716 205.439 84.1895 205.439 82.4958 205.12C80.2728 204.908 76.8854 204.06 74.8741 200.456C73.4979 197.911 73.9213 194.624 75.5092 192.08C75.6258 191.897 75.745 191.687 75.8763 191.456C76.5796 190.219 77.63 188.371 80.4846 186.674C81.8256 185.834 83.0338 185.792 84.0043 185.758C84.2596 185.749 84.4984 185.741 84.7189 185.719C85.8833 185.719 87.5771 186.143 88.5298 186.78C91.4939 188.582 93.5052 192.08 93.717 195.579C93.8228 199.077 92.129 202.681 89.2708 204.802C88.7415 205.226 90.8587 213.919 91.1763 214.979V215.51L91.2347 215.662C91.7296 216.952 92.043 217.768 92.5525 218.584C93.088 218.341 93.6179 218.097 94.1422 217.856C95.8981 217.048 97.5911 216.269 99.2215 215.616L99.223 215.615C100.069 215.298 100.916 214.979 101.762 214.556C104.62 213.496 107.161 212.648 109.49 211.906C111.078 209.254 114.042 206.498 115.418 205.65C118.382 203.954 122.193 203.53 125.157 205.12C126.11 205.65 127.062 206.392 127.592 207.452C128.756 209.467 128.544 212.117 127.38 214.131C126.216 216.146 124.31 217.63 122.299 218.796C120.711 219.644 119.017 220.387 117.218 220.281C114.731 220.281 112.549 218.859 110.473 217.507L110.337 217.418C110.209 217.418 110.119 217.34 110.022 217.255C109.958 217.2 109.891 217.142 109.807 217.1C105.996 217.948 100.915 219.433 95.5165 221.765C96.681 222.931 98.0571 223.779 99.7509 224.415C99.8567 224.415 100.068 224.521 100.28 224.627C100.421 224.674 100.745 224.789 101.194 224.949C103.772 225.866 110.505 228.26 110.866 227.808C113.195 225.157 116.053 223.567 119.441 224.098C122.934 224.627 126.004 226.96 127.486 230.14C128.015 231.2 128.333 232.367 128.121 233.532C128.015 234.593 127.486 235.547 126.957 236.395C125.475 238.834 123.463 241.166 120.923 242.438C118.276 243.711 114.995 243.816 112.666 242.12C109.172 239.682 107.584 234.169 109.807 230.565C109.807 230.565 101.55 228.55 100.598 228.232C97.9512 227.384 94.2462 225.263 92.6583 223.143C88.2123 225.369 83.2368 228.444 78.8966 232.155C79.5317 233.109 81.0139 235.123 83.5544 236.077C84.2955 236.395 85.4599 236.819 87.0478 236.713C87.8241 236.648 88.4027 236.346 88.8803 236.096C89.1843 235.938 89.4473 235.8 89.6943 235.759C92.5525 235.123 95.6223 235.229 98.2688 236.713C101.445 238.515 103.562 242.226 103.032 245.83C102.503 249.435 99.1157 252.51 95.4106 252.403C93.5051 252.403 91.7056 251.449 90.2236 250.178C88.1064 248.482 86.095 246.678 84.7189 244.453L83.2369 240.954C82.7076 239.576 82.39 238.94 81.7549 238.092C81.0139 237.138 80.3786 236.607 79.8493 236.184C79.2142 235.653 78.1556 235.017 76.7795 234.486C74.7682 236.395 72.2277 239.046 69.8987 242.65C69.8987 242.65 68.84 244.347 67.7814 246.149C54.7608 270.745 61.8533 291.736 63.6529 296.083C85.354 282.3 112.666 263.747 120.711 252.934C123.178 249.659 125.965 246.408 128.839 243.054C141.131 228.709 155.023 212.499 152.363 184.659C148.975 185.189 145.482 185.295 142.2 184.659C137.331 183.811 132.779 181.372 130.238 177.238C129.64 176.302 129.161 175.286 128.683 174.275C127.81 172.424 126.943 170.589 125.369 169.286C125.183 169.127 124.992 168.975 124.8 168.823C124.224 168.365 123.649 167.909 123.252 167.272C122.463 165.98 122.791 164.396 123.118 162.817C123.273 162.064 123.429 161.312 123.463 160.594C123.463 158.852 122.734 157.301 122.004 155.751C121.4 154.468 120.797 153.185 120.605 151.794C120.309 149.567 121.102 147.341 121.894 145.115C122.234 144.16 122.574 143.206 122.828 142.252C122.873 142.095 122.918 141.935 122.963 141.772C123.561 139.634 124.263 137.126 126.427 136.633C127.245 136.444 128.025 136.629 128.789 136.811C129.312 136.934 129.828 137.058 130.344 137.058C131.445 137.058 132.523 136.654 133.599 136.252C134.799 135.803 135.997 135.355 137.225 135.467C138.453 135.584 139.423 136.316 140.402 137.055C141.195 137.653 141.994 138.257 142.941 138.541C143.768 138.847 144.685 138.901 145.595 138.955C146.899 139.032 148.19 139.108 149.187 139.92C149.81 140.374 150.191 141.039 150.572 141.707C150.903 142.287 151.235 142.869 151.728 143.312C152.463 143.992 153.409 144.339 154.373 144.692C155.214 145 156.069 145.314 156.809 145.856C157.733 146.584 158.287 147.601 158.83 148.597C159.157 149.198 159.481 149.791 159.879 150.309C160.522 151.138 161.365 151.786 162.199 152.428C163.287 153.266 164.361 154.093 164.96 155.292C165.691 156.757 165.51 158.433 165.326 160.138C165.19 161.394 165.053 162.665 165.278 163.88C165.383 164.356 165.542 164.808 165.701 165.258C165.86 165.709 166.019 166.159 166.124 166.636C166.594 168.424 166.397 170.295 166.198 172.176C166.173 172.414 166.148 172.652 166.124 172.891C165.807 175.542 164.536 178.086 162.631 180.101C164.854 194.095 166.018 220.811 151.304 246.149C151.304 246.149 192.801 247.845 228.899 221.871C224.876 218.054 221.065 215.827 218.419 214.556C218.419 214.556 210.373 210.633 197.988 211.587C197.776 211.587 197.141 211.587 196.612 212.117C196.294 212.435 196.082 212.86 195.871 213.283C194.495 216.57 191.636 219.327 188.355 220.598C183.168 222.613 174.064 220.704 171.206 215.51C170.041 213.496 170.041 210.951 170.57 208.619C171.523 204.59 174.487 200.879 178.51 199.608C185.602 197.487 191.107 203 195.447 207.771C195.513 207.836 195.574 207.902 195.633 207.965C195.861 208.21 196.064 208.428 196.4 208.512H197.247C197.721 208.407 198.384 208.308 199.135 208.196C201.404 207.859 204.47 207.401 205.504 206.287C206.986 204.802 205.61 201.091 204.975 199.501C203.81 196.533 202.01 193.458 198.941 192.716C198.033 192.489 197.126 192.532 196.219 192.576C195.856 192.593 195.493 192.61 195.13 192.61C189.837 192.61 184.544 190.808 180.521 187.522C177.663 185.189 175.334 181.69 175.652 177.98C175.758 175.542 177.028 173.315 178.616 171.513C181.474 168.12 185.708 165.894 190.154 165.682C194.6 165.576 199.047 167.802 201.450 171.513C204.234 176.284 203.387 182.326 202.328 187.839C203.028 188.102 203.487 188.277 203.836 188.409C204.752 188.757 204.905 188.815 206.668 189.43C209.95 183.705 213.126 177.768 215.984 171.725V171.724C216.831 169.922 217.678 168.12 217.572 166.106C217.376 162.58 214.53 160.38 211.605 158.121C209.782 156.713 207.929 155.281 206.668 153.49C203.069 148.402 205.186 140.768 210.268 137.164C215.243 133.558 222.124 133.347 228.052 135.361C232.074 136.739 236.097 139.496 237.791 143.525C239.908 148.507 238.003 153.49 235.25 157.942C233.345 161.123 230.381 163.88 226.781 164.94C226.252 165.046 225.829 165.152 225.405 165.576C225.088 165.788 224.876 166.212 224.77 166.53C223.946 168.181 223.189 169.809 222.437 171.426C221.547 173.339 220.664 175.236 219.689 177.132C217.814 180.804 216.07 183.211 214.638 185.189C212.432 188.234 210.967 190.256 210.903 194.306C210.797 200.668 215.455 205.333 217.995 207.877C224.029 213.919 231.122 216.04 234.827 216.782C234.986 216.654 235.155 216.527 235.327 216.396C235.729 216.093 236.15 215.774 236.521 215.404C240.649 212.011 243.931 208.406 246.683 204.802C246.471 203.424 246.26 202.364 246.048 201.516C245.942 200.879 245.307 198.441 244.248 195.472C243.931 194.731 243.507 193.989 242.978 193.141C242.696 192.647 242.368 192.435 241.993 192.192C241.804 192.07 241.603 191.94 241.39 191.762C240.014 190.595 238.638 189.324 237.685 187.733C235.568 184.553 234.403 180.736 233.451 177.026C232.816 174.269 232.604 171.407 233.662 168.757C235.568 163.773 241.708 161.123 246.789 162.607C251.87 164.092 255.575 169.074 256.104 174.450C256.528 178.722 254.834 182.857 252.188 186.249C251.705 186.854 251.153 187.39 250.591 187.934C250.168 188.346 249.739 188.762 249.33 189.218C249.22 189.364 248.808 189.762 248.319 190.236C247.392 191.133 246.19 192.296 246.26 192.504C246.358 192.899 246.824 193.754 247.401 194.813C247.444 194.89 247.486 194.969 247.53 195.049C248.377 196.533 249.435 198.441 250.282 200.349C252.505 196.639 262.562 179.464 266.267 164.621C267.961 157.836 267.855 153.596 266.373 149.885C265.366 147.263 263.496 144.545 262.314 142.826C262.254 142.738 262.195 142.652 262.138 142.57C260.467 140.203 259.454 139.125 258.639 138.258C257.958 137.532 257.415 136.953 256.74 135.891C253.881 131.333 252.717 123.911 256.104 117.974C258.433 114.051 261.927 112.249 263.091 111.719C267.431 109.493 272.724 109.387 277.17 111.401C282.04 113.628 284.157 119.67 283.734 124.759C283.416 128.894 281.828 132.923 280.134 136.739C279.679 137.697 279.125 138.714 278.558 139.756C277.807 141.136 277.032 142.559 276.429 143.948C275.399 146.376 274.993 148.421 274.577 150.521C274.265 152.091 273.948 153.691 273.359 155.504C273.359 155.61 273.359 155.823 273.254 155.929C272.83 158.579 272.195 161.442 271.348 164.515C271.031 166.318 270.607 168.65 270.289 170.134C274.1 173.315 278.547 175.33 283.204 176.92C283.281 176.92 283.371 176.948 283.47 176.978C283.645 177.032 283.848 177.094 284.051 177.026C284.385 177.026 284.653 176.827 284.908 176.64C284.976 176.59 285.043 176.54 285.11 176.496C289.873 172.997 296.542 172.043 302.153 174.163C303.635 174.693 305.011 175.542 306.176 176.707C308.187 178.722 309.034 181.584 309.034 184.447C309.034 187.309 308.187 190.066 307.234 192.716C307.201 192.806 307.167 192.897 307.133 192.989C306.847 193.763 306.543 194.586 306.07 195.155C305.011 196.427 303.318 197.063 301.624 197.381C297.919 198.229 293.896 198.229 290.72 196.214C287.333 193.989 285.745 189.747 285.321 185.719L285.319 185.675C285.214 184.098 285.102 182.421 284.263 181.161C283.734 180.418 282.993 179.994 282.252 179.57C280.134 178.403 277.911 177.555 275.477 177.344C273.995 185.507 277.488 193.882 282.357 200.562C283.204 201.728 284.263 203 285.639 203.106C286.274 203.106 286.804 203.106 287.439 203C291.991 202.364 296.648 204.802 299.083 208.725C301.518 212.648 301.624 217.63 299.824 221.871C298.977 223.779 297.707 225.581 296.013 226.748C293.155 228.762 289.238 228.974 285.851 228.126C283.098 227.384 280.346 226.006 278.758 223.673C277.488 221.765 276.959 219.538 276.641 217.312C276.324 215.298 276.218 213.389 276.641 211.450C277.065 209.361 278.017 207.558 279.499 206.393C276.535 201.728 273.783 196.851 271.242 191.974C270.545 190.665 270.206 188.564 269.931 186.857C269.872 186.491 269.816 186.143 269.76 185.826C269.231 182.963 269.548 181.055 270.078 178.192C270.09 178.095 270.103 177.997 270.117 177.899C270.222 177.129 270.335 176.305 269.866 175.647C269.388 174.88 268.909 174.807 268.352 174.722C268.293 174.713 268.233 174.704 268.172 174.693C264.044 186.567 257.163 200.456 245.942 214.131C244.355 216.039 242.662 217.946 240.969 219.854L240.967 219.856C241.284 220.704 242.131 222.825 244.248 224.203C246.642 225.663 249.139 225.277 250.53 225.062L250.6 225.052C251.805 224.861 252.668 224.48 253.394 224.16C253.879 223.945 254.304 223.758 254.728 223.673C259.174 222.719 263.938 222.931 267.961 225.263C272.83 228.126 276.006 233.957 275.053 239.576C274.1 245.195 268.807 249.859 263.197 249.541C259.492 249.33 256.74 247.315 255.152 246.043C252.696 244.075 251.7 242.251 250.162 239.432C249.047 237.389 247.647 234.825 245.201 231.307C245.16 231.249 245.116 231.189 245.071 231.126C244.186 229.903 242.516 227.593 239.696 225.475C238.888 224.846 238.079 224.369 237.529 224.045C237.431 223.987 237.342 223.933 237.262 223.885C229.64 231.625 220.853 238.622 211.644 244.77C211.644 244.9 211.762 245.029 211.902 245.183C211.992 245.281 212.09 245.389 212.173 245.513C212.702 246.149 213.443 246.573 213.973 246.785C214.687 247.053 215.326 246.869 216.651 246.486C216.898 246.416 217.167 246.338 217.466 246.255C218.339 245.964 219.011 245.716 219.535 245.524C220.155 245.297 220.567 245.147 220.853 245.088C224.559 244.24 228.475 244.453 231.863 246.467C235.885 248.799 238.532 253.676 237.791 258.341C236.944 263.218 231.969 266.292 227.946 266.61C222.124 266.928 215.772 261.627 214.29 256.22C214.164 255.78 214.055 255.288 213.939 254.764C213.467 252.645 212.877 249.992 210.585 247.951C209.95 247.315 209.209 246.891 208.786 246.678C181.05 264.383 149.399 274.243 129.497 270.639C129.497 270.639 83.3427 302.232 71.5923 315.908C59.9479 329.584 36.1297 361.071 36.1297 361.071C36.1297 361.071 40.5757 519.991 44.2807 521.581C45.5903 522.143 50.7616 519.87 58.3455 516.538C72.2181 510.443 94.1634 500.8 115.312 498.469C116.477 498.363 117.641 498.257 118.805 498.046C119.017 489.564 119.864 478.644 122.193 466.134H120.923C115.736 466.982 111.184 470.162 107.055 473.237C106.526 473.555 106.102 473.979 105.891 474.51C105.679 475.039 105.785 475.675 105.891 476.206C106.208 480.658 104.726 485.217 101.762 488.61C97.2103 493.804 86.0951 496.879 79.9553 492.85C77.5205 491.26 76.0384 488.504 75.4033 485.641C74.1329 480.658 75.4034 474.827 79.0026 471.223C85.6717 464.756 94.7755 467.724 102.292 470.481C102.715 470.693 103.244 470.799 103.773 470.693C104.091 470.693 104.409 470.450 104.62 470.162C105.099 469.764 105.784 469.264 106.553 468.704C108.85 467.029 111.899 464.807 112.454 463.06C113.195 460.622 109.702 457.228 108.008 455.851C105.044 453.306 101.233 450.868 97.4219 451.822C96.1763 452.154 95.1261 452.748 94.0669 453.347C93.7759 453.511 93.4842 453.676 93.1876 453.836C87.4713 457.016 80.5904 457.97 74.133 456.486C69.687 455.532 65.1349 453.094 63.3354 448.853C62.1709 446.097 62.171 442.916 62.912 440.054C64.1823 434.647 67.5698 429.771 72.3334 427.119C77.0971 424.469 83.3428 424.257 88.1064 427.119C94.0345 430.725 96.4693 437.934 98.4806 444.507C100.174 444.507 101.762 444.507 103.456 444.719C104.409 433.905 104.514 425.211 104.514 419.062C104.514 415.882 104.303 413.973 103.138 411.96C100.928 408.183 96.5616 407.406 92.0743 406.607C89.2549 406.105 86.3878 405.594 83.9778 404.326C77.2028 400.827 75.1915 391.074 78.579 384.183C81.9666 377.292 89.5883 373.263 97.2101 372.097C102.397 371.355 108.431 372.097 112.56 450.49C117.747 379.73 118.382 386.409 117.959 392.876C117.641 397.435 115.947 402.1 112.666 405.387C112.596 405.456 112.524 405.526 112.45 405.596C112.077 405.955 111.678 406.339 111.501 406.87C111.289 407.295 111.29 407.825 111.395 408.354C111.395 410.793 111.501 413.231 111.607 415.67C111.713 418.108 111.819 420.546 111.819 422.985C111.819 425.632 111.76 428.302 111.701 430.975C111.584 436.336 111.466 441.711 111.819 446.945C112.348 453.412 117.853 458.818 124.098 458.818C129.603 434.011 140.824 404.432 163.266 376.02C163.425 450.86 163.557 450.701 163.69 450.543C163.822 450.384 163.954 450.225 164.113 450.065C163.49 374.178 162.947 373.219 162.408 372.265C161.207 370.141 160.018 368.04 157.973 366.796C156.728 366.048 155.418 365.691 154.043 365.316C153.664 365.213 153.281 365.108 152.892 364.994C148.869 363.828 145.27 361.39 142.624 358.209C140.718 355.982 139.342 353.225 139.13 350.364C138.707 344.85 143.259 339.55 148.764 338.702C154.162 337.747 159.984 340.822 162.737 345.593C165.595 350.363 165.595 356.513 163.372 361.601C163.301 361.765 163.227 361.929 163.153 362.094C162.462 363.644 161.74 365.263 162.313 366.796C162.631 367.644 163.266 368.28 163.901 368.917C164.115 369.13 164.572 369.452 165.162 369.869C165.741 370.277 166.449 370.777 167.183 371.355C176.287 360.435 185.602 351.742 194.6 344.85C194.707 344.103 194.945 343.236 195.186 342.358C195.663 340.621 196.151 338.84 195.659 337.854C195.235 337.005 194.283 336.581 193.436 336.264C193.096 336.129 192.764 336.001 192.44 335.876C189.938 334.909 187.876 334.112 185.814 332.235C185.757 332.187 185.694 332.136 185.624 332.079C184.923 331.512 183.593 330.434 181.474 327.252C178.232 322.435 177.057 318.936 176.174 316.31C175.269 313.619 174.672 311.843 172.476 310.501C170.733 309.435 169.235 309.432 167.665 309.43C165.802 309.426 163.841 309.423 161.255 307.638C161.214 307.607 161.169 307.574 161.12 307.538C160.174 306.834 157.906 305.146 156.597 302.02C155.327 299.157 155.644 295.871 156.597 292.902C157.761 289.298 160.196 285.8 163.69 284.315C165.807 283.467 168.136 283.361 170.359 283.679C170.888 283.679 179.251 285.057 182.003 291.948C183.909 296.613 182.532 302.444 180.627 304.988C180.596 305.035 180.553 305.094 180.501 305.164C180.205 305.57 179.627 306.359 179.357 307.532C179.357 307.532 178.827 309.547 179.78 311.986C183.168 320.361 188.778 328.418 197.141 331.704C198.305 329.372 198.835 326.722 198.941 324.178C198.941 323.224 198.941 322.269 198.623 321.42C198.048 319.982 196.692 318.976 195.498 318.09C195.373 317.998 195.25 317.907 195.13 317.816C191.636 315.166 188.672 311.243 188.566 306.79C188.566 302.761 190.895 298.946 193.754 296.083C195.024 294.811 196.612 293.432 198.517 293.221C199.47 293.115 202.116 293.008 203.069 293.221C205.29 293.697 206.56 294.53 208.17 295.588C208.709 295.941 209.286 296.319 209.95 296.719C212.596 298.309 214.714 300.748 215.455 303.716C215.878 305.413 215.772 307.109 215.455 308.805C214.184 315.166 209.526 320.785 203.493 323.224C203.397 323.271 203.302 323.313 203.208 323.355C202.884 323.499 202.574 323.636 202.328 323.965C202.182 324.112 202.137 324.309 202.088 324.521C202.066 324.616 202.043 324.714 202.011 324.814C200.74 329.902 200.105 335.097 200.74 340.398C212.596 332.129 223.923 326.828 233.98 323.435C234.838 321.385 236.026 319.295 236.901 317.754C237.429 316.825 237.843 316.095 238.003 315.696C238.426 314.636 238.743 313.576 238.638 312.515C238.454 310.583 236.835 309.21 235.303 307.911C235.07 307.713 234.839 307.516 234.615 307.321C229.428 302.868 226.146 296.083 226.676 289.298C227.205 282.512 231.863 276.046 238.426 274.137C244.989 272.229 252.823 275.516 255.363 281.877C256.74 285.163 256.634 288.979 255.787 292.478C254.622 297.461 251.87 302.126 248.165 305.624C247.772 305.991 247.366 306.353 246.958 306.715C245.719 307.817 244.463 308.933 243.507 310.289C241.9 312.746 241.712 316.217 241.54 319.406C241.496 320.209 241.454 320.993 241.39 321.739C242.766 321.103 244.46 320.361 246.471 319.618C247.148 319.377 247.78 319.135 248.438 318.883C249.223 318.583 250.045 318.268 251.023 317.922C253.137 317.239 254.153 316.953 255.372 316.608C256.045 316.417 256.781 316.21 257.798 315.908C257.875 315.883 257.955 315.856 258.037 315.828C258.974 315.519 260.247 315.098 261.609 314.318C263.731 313.083 265.057 311.583 266.186 310.305C266.804 309.606 267.362 308.974 267.961 308.486C271.348 305.624 275.053 302.868 279.182 301.384C284.263 299.582 291.038 300.005 294.637 304.352C297.919 308.275 299.295 313.788 298.236 318.876C297.495 322.481 295.907 325.449 293.79 327.782C287.65 334.567 278.652 334.037 276.853 333.825C273.889 333.612 269.125 333.189 266.055 329.797C265.848 329.565 265.651 329.325 265.452 329.082C264.735 328.208 263.993 327.303 262.668 326.722C260.233 325.662 257.692 326.51 256.422 326.934C251.616 328.476 249.381 328.865 247.306 329.225C244.672 329.684 242.295 330.096 235.25 332.764C234.757 332.963 234.229 333.172 233.665 333.395C231.81 334.13 229.566 335.019 226.887 336.157C220.536 339.02 210.268 344.214 197.247 353.332C198.455 354.34 199.535 355.391 200.326 356.16C200.783 356.605 201.143 356.954 201.450 357.148C202.116 357.679 202.963 358.209 203.916 358.315C205.657 358.509 207.222 357.450 208.61 356.368C208.74 356.273 208.87 356.18 208.997 356.088C213.761 352.696 220.112 351.423 225.617 353.225C231.122 355.134 235.568 360.435 235.78 366.266C235.991 372.097 231.545 377.928 225.829 378.776C222.759 379.2 219.689 378.352 216.937 376.868C213.02 374.853 209.844 371.567 207.727 367.75C207.437 367.234 207.176 366.707 206.918 366.185C206.328 364.995 205.752 363.832 204.869 362.873C203.071 360.949 200.548 360.152 198.022 359.353C196.233 358.787 194.443 358.222 192.907 357.254C187.084 362.555 181.474 368.598 176.499 374.959C179.039 376.444 182.744 378.882 186.344 382.805C188.713 385.361 190.122 387.524 191.346 389.403C192.965 391.89 194.262 393.881 197.035 395.633C202.331 399.065 208.442 398.416 210.572 398.19L210.691 398.177C216.286 397.533 218.755 395.755 222.371 393.151C224.707 391.467 227.523 389.44 231.969 387.151C235.058 385.566 238.201 384.089 241.359 382.605C242.638 382.004 243.92 381.401 245.201 380.79C245.26 380.76 245.322 380.731 245.384 380.7C245.769 380.515 246.198 380.307 246.471 379.942C246.774 379.563 246.914 379.13 247.047 378.72C247.1 378.557 247.152 378.396 247.212 378.246C248.483 373.793 251.87 370.188 255.787 367.75C261.186 364.358 267.537 361.919 273.677 364.569C278.652 366.69 282.04 371.779 283.734 376.655C286.274 383.865 286.168 392.452 281.617 398.707C277.17 404.962 267.643 407.612 261.291 403.16C259.044 401.605 257.255 399.292 255.496 397.019C252.698 393.404 249.98 389.891 245.624 389.695C243.19 389.59 240.861 390.65 238.638 391.71C231.228 395.314 223.923 399.237 216.831 403.372C217.413 404.909 217.625 405.492 217.836 406.075C218.048 406.658 218.26 407.242 218.842 408.779C225.617 407.506 233.133 406.341 239.061 409.945C243.719 412.808 246.471 418.427 246.365 423.939C246.26 429.452 243.401 434.753 239.273 438.251C237.05 440.159 234.298 441.75 231.333 441.963C226.782 442.28 222.547 439.417 219.583 435.919C215.349 430.936 213.02 424.363 213.126 417.79C213.126 417.392 213.139 416.995 213.152 416.597C213.192 415.405 213.232 414.212 212.914 413.019C211.961 409.203 208.15 406.977 204.551 405.492C202.54 404.644 197.882 403.054 196.083 404.856C194.644 406.213 194.085 410.415 193.702 413.291C193.606 414.012 193.521 414.651 193.436 415.14C193.436 415.246 193.424 415.352 193.413 415.458C193.389 415.67 193.365 415.882 193.436 416.094C193.525 416.537 193.835 416.833 194.12 417.103C194.176 417.156 194.231 417.208 194.283 417.26C200.211 422.667 207.092 429.346 204.339 438.251C202.857 443.234 198.305 446.839 193.224 448.111C190.366 448.853 187.19 448.853 184.65 447.369C178.192 443.765 175.863 432.527 178.298 426.06C179.886 421.925 183.273 418.427 187.402 416.624C187.931 416.412 188.461 416.2 188.884 415.776C189.307 415.352 189.413 414.716 189.519 414.08V414.079C190.366 408.991 191.001 403.478 189.413 398.495C189.367 398.343 189.32 398.186 189.272 398.027C188.219 394.518 186.651 389.299 181.792 385.243C178.192 382.274 174.381 381.214 172.264 380.79C171.03 382.468 170.089 383.925 169.014 385.591C168.798 385.925 168.577 386.267 168.347 386.622C143.682 426.377 150.352 470.268 156.915 493.698C186.661 489.458 220.112 482.46 241.073 468.149C241.557 467.82 242.039 467.494 242.519 467.169C273.484 446.195 294.512 431.951 306.917 381.109C319.514 329.478 314.221 396.163 314.221 396.163C314.221 396.163 342.868 379.175 450 380.728V0ZM450 401.107C374.185 402.415 373.446 403.395 372.803 404.25C371.605 405.839 370.737 406.991 370.326 408.991C369.23 413.981 371.229 420.568 450 423.092V401.107ZM450 431.953C374.817 432.276 374.689 432.507 374.56 432.738C374.296 433.216 374.031 433.692 373.29 434.965C373.858 435.433 374.431 435.908 450 436.393V431.953ZM450 464.563C371.878 465.869 368.353 466.227 365.033 465.71C362.387 465.286 359.846 464.332 357.941 462.424C355.082 459.455 354.659 454.897 355.294 450.974C356.247 445.249 359.423 439.948 363.975 436.238C364.169 436.081 364.371 435.925 364.575 435.768C365.482 435.067 366.44 434.326 367.045 433.450C369.162 430.619 368.527 426.696 367.362 423.409C366.727 421.607 365.139 417.579 362.916 417.366C361.19 417.201 358.189 419.082 356.04 420.427C355.422 420.815 354.874 421.158 354.447 421.394C354.13 421.5 353.918 421.713 353.707 421.925H353.706C353.389 422.243 353.389 422.773 353.389 423.198C353.071 430.3 352.436 438.782 344.92 442.068C340.686 443.87 335.605 442.811 331.899 440.159C329.782 438.676 327.983 436.449 327.559 433.905C326.289 427.438 332.64 419.381 338.463 417.473C342.168 416.2 346.508 416.518 350.001 418.321C350.06 418.35 350.121 418.382 350.184 418.414C350.572 418.615 351.027 418.85 351.483 418.85C352.088 418.85 352.552 418.568 352.817 418.407C352.877 418.37 352.926 418.34 352.965 418.321C367.15 408.037 370.22 396.905 370.22 396.905C370.75 395.209 371.279 392.453 371.491 389.06C363.975 389.59 353.071 391.286 341.215 396.587C323.537 404.539 313.374 416.2 299.507 432.527C290.509 443.128 278.97 458.289 268.067 478.432C273.995 476.948 281.087 474.404 289.873 470.268C289.873 470.268 289.873 470.450 289.768 470.587L291.991 469.633C298.236 467.3 305.435 466.982 311.151 469.951C313.356 471.054 314.576 471.903 315.654 472.654C317.268 473.778 318.565 474.68 322.372 475.887C322.505 475.927 322.638 475.967 322.772 476.007C324.754 476.596 326.72 477.181 328.406 479.068C329.5 480.301 329.755 481.312 330.055 482.501C330.219 483.154 330.398 483.861 330.735 484.687C331.872 487.249 333.467 488.129 335.257 489.118C336.801 489.97 338.49 490.903 340.156 493.062C342.048 495.467 342.64 498.523 343.237 501.611C343.509 503.015 343.782 504.425 344.179 505.784C344.232 505.976 344.287 506.173 344.342 506.37C345.17 509.331 346.144 512.808 343.861 514.796C343.07 515.527 342.068 515.839 341.058 516.152C340.312 516.383 339.561 516.616 338.886 517.022C337.51 517.737 336.527 518.991 335.546 520.243C334.49 521.592 333.437 522.935 331.899 523.595C330.352 524.311 328.67 524.121 326.986 523.93C325.676 523.783 324.364 523.635 323.113 523.913C321.912 524.136 320.786 524.714 319.672 525.286C318.134 526.076 316.619 526.854 314.962 526.67C313.942 526.557 313.044 526.048 312.137 525.535C311.349 525.09 310.555 524.64 309.669 524.443C308.323 524.163 306.948 524.417 305.574 524.671C304.354 524.898 303.136 525.123 301.941 524.974C300.417 524.783 299.121 524.02 297.826 523.256C296.962 522.747 296.098 522.238 295.166 521.899C293.865 521.404 292.449 521.234 291.041 521.065C289.126 520.834 287.225 520.604 285.639 519.566C283.801 518.34 282.85 516.281 281.903 514.232C281.541 513.449 281.18 512.667 280.77 511.934C280.656 511.781 280.515 511.574 280.346 511.328C280.045 510.887 279.657 510.319 279.182 509.707C278.617 509.071 277.958 508.529 277.3 507.987C276.97 507.717 276.641 507.445 276.324 507.163C275.265 506.103 274.418 504.83 273.677 503.452C269.019 498.788 262.138 493.38 252.717 489.352C223.288 506.632 187.614 514.372 143.259 523.489C135.637 525.08 128.015 527.412 120.605 530.38C122.828 542.36 131.191 571.09 162.525 588.372C163.478 583.389 163.16 578.3 162.313 573.317C162.313 572.999 162.313 572.681 161.996 572.469C161.827 572.132 161.525 571.996 161.195 571.847C161.11 571.809 161.024 571.77 160.937 571.727C155.115 568.865 150.881 562.927 150.14 556.46C149.928 554.764 149.928 552.962 150.457 551.371C151.41 548.51 153.739 546.177 156.491 544.798C156.886 544.601 157.258 544.411 157.616 544.226C159.757 543.13 161.377 542.299 164.007 541.937C164.96 541.831 167.395 541.937 168.347 542.254C170.147 542.572 171.523 543.95 172.794 545.435C175.44 548.51 177.557 552.432 177.134 556.567C176.71 561.019 173.429 564.623 169.724 567.062C169.547 567.176 169.368 567.289 169.19 567.401C167.875 568.229 166.565 569.054 165.913 570.455C165.489 571.303 165.383 572.257 165.383 573.211C165.277 575.861 165.701 578.406 166.654 580.951C175.334 578.3 181.474 570.667 185.497 562.504C186.238 561.125 186.873 559.535 186.344 558.05C186.132 557.415 185.708 556.885 185.285 556.354C182.427 552.325 182.321 546.601 184.861 542.254C187.402 537.908 192.166 535.257 197.141 534.833C199.364 534.621 201.693 534.939 203.81 535.999C207.198 537.802 209.315 541.406 210.268 545.117C211.009 548.191 211.008 551.477 209.526 554.234C207.939 557.202 205.61 558.793 204.445 559.429C203.452 560.026 202.553 560.249 201.746 560.449L201.587 560.489C199.023 560.898 197.39 560.825 196.051 560.764C194.957 560.715 194.06 560.675 193.013 560.913C190.486 561.516 189.361 563.761 187.579 567.32C186.224 570.023 184.49 573.484 181.474 577.557C180.204 579.254 179.039 580.632 177.134 582.011C174.487 583.919 171.629 585.085 171.629 585.085C170.947 585.365 170.392 585.562 169.932 585.725C168.822 586.121 168.267 586.319 167.818 586.993C167.077 588.266 167.183 590.704 168.347 591.446C169.331 592.072 170.389 592.473 171.523 592.901C171.732 592.98 171.944 593.06 172.158 593.143C181.156 596.853 189.837 598.868 198.094 599.716C202.222 595.157 203.492 591.234 203.916 588.478C204.022 587.63 204.022 587.205 204.022 586.529C204.022 585.854 204.022 584.927 204.128 583.071L204.132 583.017C204.553 577.646 204.768 574.898 206.245 572.045C207.409 569.713 209.209 567.592 211.538 566.32C215.984 563.988 222.018 566.002 224.77 570.242C227.522 574.484 226.993 580.42 223.923 584.449C220.959 588.478 215.772 590.704 210.797 590.597C210.599 590.597 210.381 590.59 210.149 590.582C208.886 590.537 207.195 590.478 206.033 591.552C205.61 591.976 205.186 592.506 204.445 595.368C203.916 597.277 203.598 598.868 203.493 600.139C213.232 600.564 221.912 599.503 229.957 597.701C233.98 592.718 235.25 588.372 235.674 585.297C235.771 584.616 235.779 584.226 235.79 583.695C235.802 583.068 235.819 582.248 235.991 580.526C236.016 580.261 236.04 580.002 236.064 579.749C236.543 574.638 236.797 571.924 238.108 569.5C239.379 567.169 241.073 564.942 243.401 563.775C247.847 561.444 253.881 563.458 256.634 567.698C259.386 571.939 258.857 577.876 255.787 581.905C252.823 585.933 247.636 588.159 242.66 588.159C242.482 588.159 242.27 588.147 242.034 588.134C240.872 588.067 239.128 587.968 237.897 589.114C237.262 589.749 236.944 590.492 236.521 591.976C235.885 593.778 235.674 595.263 235.568 596.323C237.791 596.323 241.602 596.216 245.836 594.414C250.494 592.401 253.352 589.538 253.987 588.795C254.708 588.022 255.054 587.55 255.437 587.024C255.843 586.469 256.291 585.856 257.269 584.767C259.069 582.753 260.974 580.844 263.409 579.572C266.267 577.982 270.395 577.664 272.936 579.996C275.265 582.117 276.535 585.191 276.324 588.372C276.112 591.552 274.524 594.52 271.983 596.323C268.49 598.868 263.726 598.868 259.492 598.231C258.347 598.032 257.694 597.879 257.147 597.751C256.531 597.608 256.049 597.495 255.152 597.383C250.494 596.959 246.365 598.974 242.978 601.412C243.402 601.836 243.825 602.26 244.354 602.578C247.542 604.741 251.628 605.403 255.449 606.021L255.787 606.076C256.634 606.183 257.586 606.289 258.539 606.076C259.429 605.898 260.17 605.42 260.887 604.957C261.022 604.869 261.157 604.783 261.291 604.698C264.997 602.366 269.231 600.351 273.677 600.458C278.123 600.458 282.781 603.002 284.157 607.243C285.004 609.681 284.581 612.437 283.734 614.876C282.993 617.314 281.722 619.541 279.923 621.343C276.218 625.054 270.184 626.114 265.42 623.994C260.656 621.767 257.586 616.36 258.116 611.166C254.093 609.999 250.176 608.515 246.471 606.818C244.142 605.758 241.39 604.38 239.273 602.472C236.838 603.002 233.027 603.744 228.158 604.38C228.158 604.663 228.064 604.945 227.97 605.228C227.922 605.37 227.875 605.511 227.84 605.652C226.57 611.06 226.782 616.572 227.84 621.979C227.84 622.297 227.84 622.615 228.158 622.827C228.326 623.164 228.629 623.301 228.959 623.449C229.043 623.487 229.13 623.526 229.216 623.569C235.038 626.432 239.273 632.369 240.014 638.836C240.019 638.895 240.025 638.956 240.031 639.018C240.139 640.185 240.299 641.912 239.696 643.924C237.897 649.543 231.228 653.36 225.088 652.936C224.029 652.936 220.536 652.512 217.466 649.861C214.29 647.211 212.702 642.865 213.02 638.73C213.443 634.277 216.725 630.673 220.43 628.234C220.607 628.121 220.785 628.007 220.963 627.895C222.279 627.067 223.588 626.242 224.241 624.842C224.664 623.994 224.77 623.039 224.77 622.085C224.876 619.435 224.453 616.89 223.5 614.452C214.925 617.102 208.68 624.735 204.657 632.792C203.916 634.171 203.281 635.761 203.81 637.246C204.022 637.882 204.445 638.411 204.869 638.942C207.727 642.971 207.833 648.695 205.292 653.042C202.752 657.283 197.988 660.039 193.013 660.463C190.684 660.676 188.355 660.357 186.344 659.297C182.956 657.601 180.839 653.89 179.886 650.18C179.145 647.105 179.145 643.819 180.627 641.062C181.998 638.422 183.999 637.044 185.689 635.88L185.708 635.867C188.336 634.089 190.392 633.551 192.356 633.039C193.319 632.786 194.26 632.54 195.236 632.157C198.971 630.761 200.24 628.777 201.825 626.298C203.251 624.07 204.932 621.441 208.891 618.481C211.411 616.598 213.824 615.366 215.904 614.305C219.329 612.556 221.848 611.271 222.441 608.303C222.759 606.924 222.441 605.652 222.23 604.91C211.644 605.97 197.988 606.183 183.803 603.744C182.215 606.289 181.051 610.635 181.051 613.179C181.051 614.972 181.134 616.438 181.208 617.728C181.383 620.784 181.501 622.844 180.309 625.902C179.886 627.067 178.086 631.521 173.746 633.005C169.406 634.488 163.795 632.581 161.784 628.871C161.138 627.667 161.055 626.627 160.974 625.606C160.963 625.456 160.951 625.308 160.937 625.16C160.62 619.646 163.478 614.027 168.242 611.06C169.44 610.316 170.7 609.758 171.956 609.202C173.028 608.727 174.098 608.253 175.122 607.666C177.134 606.606 178.933 604.91 179.674 602.789C170.465 600.882 161.255 597.701 152.574 592.824C126.427 577.982 106.526 555.612 96.3635 542.679C69.687 558.687 49.5738 580.632 49.3621 596.747C49.3621 604.062 50.3148 628.871 50.3148 628.871C50.4333 631.006 50.5518 633.193 50.6726 635.422C50.9835 641.158 51.3098 647.176 51.691 653.36L50.209 652.936C50.209 653.269 50.2957 653.572 50.3786 653.862C50.4542 654.127 50.5265 654.379 50.5265 654.632C50.8526 660.184 51.1003 665.878 51.348 671.574C51.7436 680.67 52.1394 689.771 52.8554 698.311C53.8082 709.761 55.2902 720.469 58.4659 730.328C62.5945 742.733 68.099 753.334 76.0384 762.663C83.9778 771.781 93.2934 779.096 103.35 785.563L144.167 813H450V464.563ZM79.2763 813C70.3824 810.181 60.3587 808.998 51.8014 813H79.2763Z"
            fill="#F0F3FF" />
        <g opacity="0.6" filter="url(#filter0_bd_8163_43615)">
            <rect y="1" width="450" height="813" fill="url(#paint1_linear_8163_43615)" fill-opacity="0.5"
                shape-rendering="crispEdges" />
            <rect x="0.5" y="1.5" width="449" height="812" stroke="white" stroke-opacity="0.2"
                shape-rendering="crispEdges" />
        </g>
    </g>
    <defs>
        <filter id="filter0_bd_8163_43615" x="-40" y="-19" width="455" height="893" filterUnits="userSpaceOnUse"
            color-interpolation-filters="sRGB">
            <feFlood flood-opacity="0" result="BackgroundImageFix" />
            <feGaussianBlur in="BackgroundImageFix" stdDeviation="10" />
            <feComposite in2="SourceAlpha" operator="in" result="effect1_backgroundBlur_8163_43615" />
            <feColorMatrix in="SourceAlpha" type="matrix" values="0 0 0 0 0 0 0 0 0 0 0 0 0 0 0 0 0 0 127 0"
                result="hardAlpha" />
            <feOffset dy="20" />
            <feGaussianBlur stdDeviation="20" />
            <feComposite in2="hardAlpha" operator="out" />
            <feColorMatrix type="matrix" values="0 0 0 0 0 0 0 0 0 0 0 0 0 0 0 0 0 0 0.05 0" />
            <feBlend mode="normal" in2="effect1_backgroundBlur_8163_43615" result="effect2_dropShadow_8163_43615" />
            <feBlend mode="normal" in="SourceGraphic" in2="effect2_dropShadow_8163_43615" result="shape" />
        </filter>
        <linearGradient id="paint0_linear_8163_43615" x1="301" y1="223.5" x2="-453" y2="1802"
            gradientUnits="userSpaceOnUse">
            <stop stop-color="#CCD4FF" stop-opacity="0.55" />
            <stop offset="1" stop-color="white" stop-opacity="0" />
        </linearGradient>
        <linearGradient id="paint1_linear_8163_43615" x1="439.5" y1="947.644" x2="-391.758" y2="359.013"
            gradientUnits="userSpaceOnUse">
            <stop stop-color="#E4E8FC" />
            <stop offset="1" stop-color="white" stop-opacity="0.2" />
        </linearGradient>
        <clipPath id="clip0_8163_43615">
            <rect width="450" height="813" fill="white" />
        </clipPath>
    </defs>
</svg>